<?xml version="1.0" encoding="UTF-8" standalone="no"?>
<svg
   xmlns:dc="http://purl.org/dc/elements/1.1/"
   xmlns:cc="http://creativecommons.org/ns#"
   xmlns:rdf="http://www.w3.org/1999/02/22-rdf-syntax-ns#"
   xmlns:svg="http://www.w3.org/2000/svg"
   xmlns="http://www.w3.org/2000/svg"
   viewBox="0 0 595.27557 841.88977"
   id="svg2"
   height="841.88977"
   width="595.27557"
   version="1.1">
  <metadata
     id="metadata92">
    <rdf:RDF>
      <cc:Work
         rdf:about="">
        <dc:format>image/svg+xml</dc:format>
        <dc:type
           rdf:resource="http://purl.org/dc/dcmitype/StillImage" />
      </cc:Work>
    </rdf:RDF>
  </metadata>
  <defs
     id="defs90" />
  <g
     id="g4">
    <path
       id="path6"
       style="fill:#005930;fill-rule:evenodd"
       d="m 321.6753,476.4454 c 1.1671,0.7731 3.5159,1.4251 5.6303,1.4251 5.169,0 7.6391,-2.9483 7.6391,-6.3207 0,-3.2132 -1.8514,-4.977 -5.5623,-6.427 -3.0187,-1.1797 -4.3576,-2.1749 -4.3576,-4.2134 0,-1.4928 1.1364,-3.2817 4.13,-3.2817 1.9857,0 3.4483,0.6517 4.1614,1.0383 l 0.7501,-2.3037 c -0.9406,-0.5228 -2.5998,-1.0381 -4.8131,-1.0381 -4.2588,0 -7.1234,2.5314 -7.1234,5.904 0,3.084 2.2637,4.9133 5.8203,6.1991 2.9849,1.0789 4.1303,2.3035 4.1303,4.3497 0,2.2058 -1.6903,3.7285 -4.585,3.7285 -1.9476,0 -3.8048,-0.6134 -5.0702,-1.4243 l -0.7499,2.3642 z m 16.597,1.0612 2.6974,0 0.5841,-9.375 c 0.2059,-3.3106 0.3255,-6.9418 0.4171,-9.6322 l 0.0678,0 c 0.6136,2.5614 1.4987,5.3692 2.5316,8.4652 l 3.4705,10.4053 2.2357,0 3.7968,-10.4733 c 1.0554,-2.9117 2.0467,-5.8734 2.7891,-8.3972 l 0.0988,0 c -0.0308,2.6904 0.2038,6.3799 0.3559,9.3976 l 0.4852,9.6096 2.7966,0 -1.3643,-21.8716 -3.5998,0 -3.8959,10.5792 c -1.0124,2.7497 -1.7804,5.3125 -2.3035,7.5183 l -0.129,0 c -0.5531,-2.2659 -1.243,-4.8353 -2.1752,-7.4877 l -3.7282,-10.6098 -3.6003,0 -1.5304,21.8716 z m 24.6985,0 2.9557,0 2.243,-6.8735 7.7606,0 2.3424,6.8735 3.0234,0 -7.4727,-21.8716 -3.41,0 -7.4424,21.8716 z m 5.7825,-9.0866 2.145,-6.3281 c 0.4491,-1.3262 0.7803,-2.6599 1.0759,-3.9562 l 0.0912,0 c 0.3255,1.2657 0.6512,2.5615 1.1364,3.9861 l 2.1446,6.2982 -6.5931,0 z m 15.6879,9.0866 2.8643,0 0,-9.5035 2.6678,0 c 2.5789,0 3.754,1.2654 4.403,4.259 0.5937,2.7351 1.1145,4.6234 1.4323,5.2445 l 2.9557,0 c -0.4553,-0.8488 -0.9671,-2.9336 -1.6826,-6.025 -0.5198,-2.244 -1.5306,-3.8346 -3.2204,-4.4184 l 0,-0.0986 c 2.3109,-0.7726 4.1297,-2.683 4.1297,-5.5399 0,-1.7207 -0.6505,-3.2068 -1.7274,-4.1835 -1.3631,-1.2361 -3.3497,-1.7887 -6.351,-1.7887 -1.9551,0 -4.0087,0.1673 -5.4714,0.455 l 0,21.5991 z m 2.8643,-11.6408 0,-7.9724 c 0.4545,-0.129 1.4022,-0.2672 2.8043,-0.258 2.9632,0.0207 5.0171,1.2582 5.0171,4.0849 0,2.493 -1.8875,4.1455 -4.9185,4.1455 l -2.9029,0 z m 19.1664,11.6408 2.8651,0 0,-25.4427 46.3771,0 0,-2.4098 -112.0678,0 0,2.4098 62.8256,0 0,25.4427 z m 9.8136,-10.7463 c 0,7.1767 4.6465,11.1102 10.7848,11.1102 2.6903,0 4.7748,-0.5534 5.8129,-1.0458 l -0.5833,-2.2736 c -1.1372,0.5529 -2.8952,0.9093 -4.6154,0.9093 -5.3282,0 -8.4124,-3.4406 -8.4124,-8.7987 0,-5.7523 3.41,-9.0263 8.5409,-9.0263 1.8193,0 3.3497,0.3868 4.4182,0.9098 l 0.6821,-2.2965 c -0.7118,-0.3863 -2.4703,-0.932 -5.1987,-0.932 -6.7826,0 -11.4291,4.5923 -11.4291,11.4436 z m 20.061,10.7463 2.8653,0 0,-21.8716 -2.8653,0 0,21.8716 z m 11.9892,0 2.8651,0 0,-19.462 6.6843,0 0,-2.4096 -16.2032,0 0,2.4096 6.6538,0 0,19.462 z m 17.7038,0 2.8645,0 0,-9.314 7.3059,-12.5576 -3.1831,0 -3.1527,6.04 c -0.8575,1.6427 -1.6221,3.0773 -2.2051,4.509 l -0.069,0 c -0.6819,-1.5309 -1.3381,-2.8548 -2.1742,-4.509 l -3.0544,-6.04 -3.2438,0 6.9119,12.6256 0,9.246 z" />
    <path
       id="path8"
       style="fill:#f5821f;fill-rule:evenodd"
       d="m 399.6564,396.4368 c 28.6328,0 52.232,21.5371 55.4898,49.2953 l -110.9804,0 c 3.2581,-27.7582 26.8576,-49.2953 55.4906,-49.2953 z" />
    <path
       id="path10"
       style="fill:#ffffff;fill-rule:evenodd"
       d="m 353.2853,433.8681 c 0.2109,0 0.3815,0.1701 0.3815,0.3815 0,0.2099 -0.1706,0.3805 -0.3815,0.3805 -0.2107,0 -0.3808,-0.1706 -0.3808,-0.3805 0,-0.2114 0.1701,-0.3815 0.3808,-0.3815 z m 4.8181,2.613 c 0,0 -3.6048,-2.9109 -4.2147,-2.1628 -0.6099,0.7489 4.2147,2.1628 4.2147,2.1628 z m -4.8577,-1.6928 0.9391,10.9435 -1.8479,0 0.9088,-10.9435 z m -4.5288,2.0903 c 0,0 4.26,-1.5377 3.999,-2.4674 -0.262,-0.9294 -3.999,2.4674 -3.999,2.4674 z m 4.3557,-7.9345 c 0,0 -0.9454,4.5357 -0.001,4.7364 0.9454,0.2013 0.001,-4.7364 0.001,-4.7364 z" />
    <path
       id="path12"
       style="fill:#ffffff;fill-rule:evenodd"
       d="m 370.1201,421.2711 2.7517,0 c 1.0899,0 1.9812,0.7242 1.9812,1.6094 l 0,22.8516 -6.7136,0 0,-22.8516 c 0,-0.8852 0.8911,-1.6094 1.9807,-1.6094 z m 0.2209,1.5984 0.1235,0 c 0.1591,0 0.2889,0.1059 0.2889,0.2349 l 0,0.6261 c 0,0.129 -0.1298,0.2348 -0.2889,0.2348 l -0.1235,0 c -0.1594,0 -0.2892,-0.1058 -0.2892,-0.2348 l 0,-0.6261 c 0,-0.129 0.1298,-0.2349 0.2892,-0.2349 z m 1.4863,0 0.1238,0 c 0.1591,0 0.2889,0.1059 0.2889,0.2349 l 0,0.6261 c 0,0.129 -0.1298,0.2348 -0.2889,0.2348 l -0.1238,0 c -0.1592,0 -0.2889,-0.1058 -0.2889,-0.2348 l 0,-0.6261 c 0,-0.129 0.1297,-0.2349 0.2889,-0.2349 z m 1.4863,0 0.1236,0 c 0.1591,0 0.2891,0.1059 0.2891,0.2349 l 0,0.6261 c 0,0.129 -0.13,0.2348 -0.2891,0.2348 l -0.1236,0 c -0.1591,0 -0.2889,-0.1058 -0.2889,-0.2348 l 0,-0.6261 c 0,-0.129 0.1298,-0.2349 0.2889,-0.2349 z m -2.9726,1.7665 0.1235,0 c 0.1591,0 0.2889,0.1054 0.2889,0.2346 l 0,0.6261 c 0,0.129 -0.1298,0.2344 -0.2889,0.2344 l -0.1235,0 c -0.1594,0 -0.2892,-0.1054 -0.2892,-0.2344 l 0,-0.6261 c 0,-0.1292 0.1298,-0.2346 0.2892,-0.2346 z m 0,1.7663 0.1235,0 c 0.1591,0 0.2889,0.1053 0.2889,0.2348 l 0,0.6259 c 0,0.129 -0.1298,0.2346 -0.2889,0.2346 l -0.1235,0 c -0.1594,0 -0.2892,-0.1056 -0.2892,-0.2346 l 0,-0.6259 c 0,-0.1295 0.1298,-0.2348 0.2892,-0.2348 z m 0,1.7662 0.1235,0 c 0.1591,0 0.2889,0.1056 0.2889,0.2349 l 0,0.6259 c 0,0.1295 -0.1298,0.2348 -0.2889,0.2348 l -0.1235,0 c -0.1594,0 -0.2892,-0.1053 -0.2892,-0.2348 l 0,-0.6259 c 0,-0.1293 0.1298,-0.2349 0.2892,-0.2349 z m 0,1.7663 0.1235,0 c 0.1591,0 0.2889,0.1056 0.2889,0.2349 l 0,0.6256 c 0,0.1297 -0.1298,0.2353 -0.2889,0.2353 l -0.1235,0 c -0.1594,0 -0.2892,-0.1056 -0.2892,-0.2353 l 0,-0.6256 c 0,-0.1293 0.1298,-0.2349 0.2892,-0.2349 z m 0,1.766 0.1235,0 c 0.1591,0 0.2889,0.1059 0.2889,0.2351 l 0,0.6259 c 0,0.1292 -0.1298,0.2346 -0.2889,0.2346 l -0.1235,0 c -0.1594,0 -0.2892,-0.1054 -0.2892,-0.2346 l 0,-0.6259 c 0,-0.1292 0.1298,-0.2351 0.2892,-0.2351 z m 0,1.7665 0.1235,0 c 0.1591,0 0.2889,0.1056 0.2889,0.2346 l 0,0.6262 c 0,0.1292 -0.1298,0.2348 -0.2889,0.2348 l -0.1235,0 c -0.1594,0 -0.2892,-0.1056 -0.2892,-0.2348 l 0,-0.6262 c 0,-0.129 0.1298,-0.2346 0.2892,-0.2346 z m 0,1.7665 0.1235,0 c 0.1591,0 0.2889,0.1056 0.2889,0.2347 l 0,0.6261 c 0,0.129 -0.1298,0.2346 -0.2889,0.2346 l -0.1235,0 c -0.1594,0 -0.2892,-0.1056 -0.2892,-0.2346 l 0,-0.6261 c 0,-0.1291 0.1298,-0.2347 0.2892,-0.2347 z m 0,1.7663 0.1235,0 c 0.1591,0 0.2889,0.1056 0.2889,0.2346 l 0,0.6259 c 0,0.1295 -0.1298,0.2348 -0.2889,0.2348 l -0.1235,0 c -0.1594,0 -0.2892,-0.1053 -0.2892,-0.2348 l 0,-0.6259 c 0,-0.129 0.1298,-0.2346 0.2892,-0.2346 z m 0,1.766 0.1235,0 c 0.1591,0 0.2889,0.1059 0.2889,0.2351 l 0,0.6259 c 0,0.129 -0.1298,0.2348 -0.2889,0.2348 l -0.1235,0 c -0.1594,0 -0.2892,-0.1058 -0.2892,-0.2348 l 0,-0.6259 c 0,-0.1292 0.1298,-0.2351 0.2892,-0.2351 z m 1.4863,-14.1301 0.1238,0 c 0.1591,0 0.2889,0.1054 0.2889,0.2346 l 0,0.6261 c 0,0.129 -0.1298,0.2344 -0.2889,0.2344 l -0.1238,0 c -0.1592,0 -0.2889,-0.1054 -0.2889,-0.2344 l 0,-0.6261 c 0,-0.1292 0.1297,-0.2346 0.2889,-0.2346 z m 0,1.7663 0.1238,0 c 0.1591,0 0.2889,0.1053 0.2889,0.2348 l 0,0.6259 c 0,0.129 -0.1298,0.2346 -0.2889,0.2346 l -0.1238,0 c -0.1592,0 -0.2889,-0.1056 -0.2889,-0.2346 l 0,-0.6259 c 0,-0.1295 0.1297,-0.2348 0.2889,-0.2348 z m 0,1.7662 0.1238,0 c 0.1591,0 0.2889,0.1056 0.2889,0.2349 l 0,0.6259 c 0,0.1295 -0.1298,0.2348 -0.2889,0.2348 l -0.1238,0 c -0.1592,0 -0.2889,-0.1053 -0.2889,-0.2348 l 0,-0.6259 c 0,-0.1293 0.1297,-0.2349 0.2889,-0.2349 z m 0,1.7663 0.1238,0 c 0.1591,0 0.2889,0.1056 0.2889,0.2349 l 0,0.6256 c 0,0.1297 -0.1298,0.2353 -0.2889,0.2353 l -0.1238,0 c -0.1592,0 -0.2889,-0.1056 -0.2889,-0.2353 l 0,-0.6256 c 0,-0.1293 0.1297,-0.2349 0.2889,-0.2349 z m 0,1.766 0.1238,0 c 0.1591,0 0.2889,0.1059 0.2889,0.2351 l 0,0.6259 c 0,0.1292 -0.1298,0.2346 -0.2889,0.2346 l -0.1238,0 c -0.1592,0 -0.2889,-0.1054 -0.2889,-0.2346 l 0,-0.6259 c 0,-0.1292 0.1297,-0.2351 0.2889,-0.2351 z m 0,1.7665 0.1238,0 c 0.1591,0 0.2889,0.1056 0.2889,0.2346 l 0,0.6262 c 0,0.1292 -0.1298,0.2348 -0.2889,0.2348 l -0.1238,0 c -0.1592,0 -0.2889,-0.1056 -0.2889,-0.2348 l 0,-0.6262 c 0,-0.129 0.1297,-0.2346 0.2889,-0.2346 z m 0,1.7665 0.1238,0 c 0.1591,0 0.2889,0.1056 0.2889,0.2347 l 0,0.6261 c 0,0.129 -0.1298,0.2346 -0.2889,0.2346 l -0.1238,0 c -0.1592,0 -0.2889,-0.1056 -0.2889,-0.2346 l 0,-0.6261 c 0,-0.1291 0.1297,-0.2347 0.2889,-0.2347 z m 0,1.7663 0.1238,0 c 0.1591,0 0.2889,0.1056 0.2889,0.2346 l 0,0.6259 c 0,0.1295 -0.1298,0.2348 -0.2889,0.2348 l -0.1238,0 c -0.1592,0 -0.2889,-0.1053 -0.2889,-0.2348 l 0,-0.6259 c 0,-0.129 0.1297,-0.2346 0.2889,-0.2346 z m 0,1.766 0.1238,0 c 0.1591,0 0.2889,0.1059 0.2889,0.2351 l 0,0.6259 c 0,0.129 -0.1298,0.2348 -0.2889,0.2348 l -0.1238,0 c -0.1592,0 -0.2889,-0.1058 -0.2889,-0.2348 l 0,-0.6259 c 0,-0.1292 0.1297,-0.2351 0.2889,-0.2351 z m 1.4863,-14.1301 0.1236,0 c 0.1591,0 0.2891,0.1054 0.2891,0.2346 l 0,0.6261 c 0,0.129 -0.13,0.2344 -0.2891,0.2344 l -0.1236,0 c -0.1591,0 -0.2889,-0.1054 -0.2889,-0.2344 l 0,-0.6261 c 0,-0.1292 0.1298,-0.2346 0.2889,-0.2346 z m 0,1.7663 0.1236,0 c 0.1591,0 0.2891,0.1053 0.2891,0.2348 l 0,0.6259 c 0,0.129 -0.13,0.2346 -0.2891,0.2346 l -0.1236,0 c -0.1591,0 -0.2889,-0.1056 -0.2889,-0.2346 l 0,-0.6259 c 0,-0.1295 0.1298,-0.2348 0.2889,-0.2348 z m 0,1.7662 0.1236,0 c 0.1591,0 0.2891,0.1056 0.2891,0.2349 l 0,0.6259 c 0,0.1295 -0.13,0.2348 -0.2891,0.2348 l -0.1236,0 c -0.1591,0 -0.2889,-0.1053 -0.2889,-0.2348 l 0,-0.6259 c 0,-0.1293 0.1298,-0.2349 0.2889,-0.2349 z m 0,1.7663 0.1236,0 c 0.1591,0 0.2891,0.1056 0.2891,0.2349 l 0,0.6256 c 0,0.1297 -0.13,0.2353 -0.2891,0.2353 l -0.1236,0 c -0.1591,0 -0.2889,-0.1056 -0.2889,-0.2353 l 0,-0.6256 c 0,-0.1293 0.1298,-0.2349 0.2889,-0.2349 z m 0,1.766 0.1236,0 c 0.1591,0 0.2891,0.1059 0.2891,0.2351 l 0,0.6259 c 0,0.1292 -0.13,0.2346 -0.2891,0.2346 l -0.1236,0 c -0.1591,0 -0.2889,-0.1054 -0.2889,-0.2346 l 0,-0.6259 c 0,-0.1292 0.1298,-0.2351 0.2889,-0.2351 z m 0,1.7665 0.1236,0 c 0.1591,0 0.2891,0.1056 0.2891,0.2346 l 0,0.6262 c 0,0.1292 -0.13,0.2348 -0.2891,0.2348 l -0.1236,0 c -0.1591,0 -0.2889,-0.1056 -0.2889,-0.2348 l 0,-0.6262 c 0,-0.129 0.1298,-0.2346 0.2889,-0.2346 z m 0,1.7665 0.1236,0 c 0.1591,0 0.2891,0.1056 0.2891,0.2347 l 0,0.6261 c 0,0.129 -0.13,0.2346 -0.2891,0.2346 l -0.1236,0 c -0.1591,0 -0.2889,-0.1056 -0.2889,-0.2346 l 0,-0.6261 c 0,-0.1291 0.1298,-0.2347 0.2889,-0.2347 z m 0,1.7663 0.1236,0 c 0.1591,0 0.2891,0.1056 0.2891,0.2346 l 0,0.6259 c 0,0.1295 -0.13,0.2348 -0.2891,0.2348 l -0.1236,0 c -0.1591,0 -0.2889,-0.1053 -0.2889,-0.2348 l 0,-0.6259 c 0,-0.129 0.1298,-0.2346 0.2889,-0.2346 z m 0,1.766 0.1236,0 c 0.1591,0 0.2891,0.1059 0.2891,0.2351 l 0,0.6259 c 0,0.129 -0.13,0.2348 -0.2891,0.2348 l -0.1236,0 c -0.1591,0 -0.2889,-0.1058 -0.2889,-0.2348 l 0,-0.6259 c 0,-0.1292 0.1298,-0.2351 0.2889,-0.2351 z" />
    <path
       id="path14"
       style="fill:#ffffff;fill-rule:evenodd"
       d="m 374.1681,429.7679 4.3514,0 c 0.9081,0 1.6507,0.6037 1.6507,1.3417 l 0,14.6222 -7.653,0 0,-14.6222 c 0,-0.738 0.7426,-1.3417 1.6509,-1.3417 z m -0.051,1.2749 0.3583,0 c 0.1814,0 0.3298,0.1203 0.3298,0.268 l 0,1.0283 -1.0181,0 0,-1.0283 c 0,-0.1477 0.1487,-0.268 0.33,-0.268 z m 1.4442,0 0.3586,0 c 0.1811,0 0.3298,0.1203 0.3298,0.268 l 0,1.0283 -1.0181,0 0,-1.0283 c 0,-0.1477 0.1486,-0.268 0.3297,-0.268 z m 1.4447,0 0.3584,0 c 0.1816,0 0.3298,0.1203 0.3298,0.268 l 0,1.0283 -1.0182,0 0,-1.0283 c 0,-0.1477 0.1485,-0.268 0.33,-0.268 z m 1.4443,0 0.3584,0 c 0.1813,0 0.33,0.1203 0.33,0.268 l 0,1.0283 -1.0184,0 0,-1.0283 c 0,-0.1477 0.1489,-0.268 0.33,-0.268 z m -4.3332,1.8333 0.3583,0 c 0.1814,0 0.3298,0.1205 0.3298,0.2677 l 0,1.0288 -1.0181,0 0,-1.0288 c 0,-0.1472 0.1487,-0.2677 0.33,-0.2677 z m 0,1.833 0.3583,0 c 0.1814,0 0.3298,0.1208 0.3298,0.2685 l 0,1.0285 -1.0181,0 0,-1.0285 c 0,-0.1477 0.1487,-0.2685 0.33,-0.2685 z m 0,1.8338 0.3583,0 c 0.1814,0 0.3298,0.1205 0.3298,0.2679 l 0,1.0286 -1.0181,0 0,-1.0286 c 0,-0.1474 0.1487,-0.2679 0.33,-0.2679 z m 1.4442,-3.6668 0.3586,0 c 0.1811,0 0.3298,0.1205 0.3298,0.2677 l 0,1.0288 -1.0181,0 0,-1.0288 c 0,-0.1472 0.1486,-0.2677 0.3297,-0.2677 z m 0,1.833 0.3586,0 c 0.1811,0 0.3298,0.1208 0.3298,0.2685 l 0,1.0285 -1.0181,0 0,-1.0285 c 0,-0.1477 0.1486,-0.2685 0.3297,-0.2685 z m 0,1.8338 0.3586,0 c 0.1811,0 0.3298,0.1205 0.3298,0.2679 l 0,1.0286 -1.0181,0 0,-1.0286 c 0,-0.1474 0.1486,-0.2679 0.3297,-0.2679 z m 1.4447,-3.6668 0.3584,0 c 0.1816,0 0.3298,0.1205 0.3298,0.2677 l 0,1.0288 -1.0182,0 0,-1.0288 c 0,-0.1472 0.1485,-0.2677 0.33,-0.2677 z m 0,1.833 0.3584,0 c 0.1816,0 0.3298,0.1208 0.3298,0.2685 l 0,1.0285 -1.0182,0 0,-1.0285 c 0,-0.1477 0.1485,-0.2685 0.33,-0.2685 z m 0,1.8338 0.3584,0 c 0.1816,0 0.3298,0.1205 0.3298,0.2679 l 0,1.0286 -1.0182,0 0,-1.0286 c 0,-0.1474 0.1485,-0.2679 0.33,-0.2679 z m 1.4443,-3.6668 0.3584,0 c 0.1813,0 0.33,0.1205 0.33,0.2677 l 0,1.0288 -1.0184,0 0,-1.0288 c 0,-0.1472 0.1489,-0.2677 0.33,-0.2677 z m 0,1.833 0.3584,0 c 0.1813,0 0.33,0.1208 0.33,0.2685 l 0,1.0285 -1.0184,0 0,-1.0285 c 0,-0.1477 0.1489,-0.2685 0.33,-0.2685 z m 0,1.8338 0.3584,0 c 0.1813,0 0.33,0.1205 0.33,0.2679 l 0,1.0286 -1.0184,0 0,-1.0286 c 0,-0.1474 0.1489,-0.2679 0.33,-0.2679 z" />
    <path
       id="path16"
       style="fill:#ffffff;fill-rule:evenodd"
       d="m 382.1758,425.2519 3.4115,0 c 1.1803,0 2.1463,0.785 2.1463,1.7439 l 0,18.7363 -7.7036,0 0,-18.7363 c 0,-0.9589 0.9656,-1.7439 2.1458,-1.7439 z m -0.7561,1.6547 0.715,0 0,1.1404 -0.715,0 0,-1.1404 z m 1.4853,0 0.7156,0 0,1.1404 -0.7156,0 0,-1.1404 z m 1.4856,0 0.7155,0 0,1.1404 -0.7155,0 0,-1.1404 z m 1.4859,0 0.7155,0 0,1.1404 -0.7155,0 0,-1.1404 z m -4.4568,1.7663 0.715,0 0,1.1404 -0.715,0 0,-1.1404 z m 1.4853,0 0.7156,0 0,1.1404 -0.7156,0 0,-1.1404 z m 1.4856,0 0.7155,0 0,1.1404 -0.7155,0 0,-1.1404 z m 1.4859,0 0.7155,0 0,1.1404 -0.7155,0 0,-1.1404 z m -2.9715,1.6654 0.7156,0 0,1.1404 -0.7156,0 0,-1.1404 z m 0,1.6656 0.7156,0 0,1.1399 -0.7156,0 0,-1.1399 z m 0,1.6654 0.7156,0 0,1.1402 -0.7156,0 0,-1.1402 z m 0,1.6652 0.7156,0 0,1.1404 -0.7156,0 0,-1.1404 z m 0,1.6656 0.7156,0 0,1.1404 -0.7156,0 0,-1.1404 z m 0,1.6654 0.7156,0 0,1.1404 -0.7156,0 0,-1.1404 z m 1.4856,-8.3272 0.7155,0 0,1.1404 -0.7155,0 0,-1.1404 z m 0,1.6656 0.7155,0 0,1.1399 -0.7155,0 0,-1.1399 z m 0,1.6654 0.7155,0 0,1.1402 -0.7155,0 0,-1.1402 z m 0,1.6652 0.7155,0 0,1.1404 -0.7155,0 0,-1.1404 z m 0,1.6656 0.7155,0 0,1.1404 -0.7155,0 0,-1.1404 z m 0,1.6654 0.7155,0 0,1.1404 -0.7155,0 0,-1.1404 z m 1.4859,-8.3272 0.7155,0 0,1.1404 -0.7155,0 0,-1.1404 z m 0,1.6656 0.7155,0 0,1.1399 -0.7155,0 0,-1.1399 z m 0,1.6654 0.7155,0 0,1.1402 -0.7155,0 0,-1.1402 z m 0,1.6652 0.7155,0 0,1.1404 -0.7155,0 0,-1.1404 z m 0,1.6656 0.7155,0 0,1.1404 -0.7155,0 0,-1.1404 z m 0,1.6654 0.7155,0 0,1.1404 -0.7155,0 0,-1.1404 z" />
    <path
       id="path18"
       style="fill:#ffffff;fill-rule:evenodd"
       d="m 431.0995,432.3588 -3.285,0 c -1.0844,0 -1.971,0.8864 -1.971,1.9705 l 0,11.4028 7.2265,0 0,-11.4028 c 0,-1.0841 -0.8872,-1.9705 -1.9705,-1.9705 z m 0.8445,1.7591 -1.9473,0 c -0.1036,0 -0.1881,0.0846 -0.1881,0.188 l 0,0.4224 c 0,0.1031 0.0845,0.1878 0.1881,0.1878 l 1.9473,0 c 0.1031,0 0.1878,-0.0847 0.1878,-0.1878 l 0,-0.4224 c 0,-0.1034 -0.0847,-0.188 -0.1878,-0.188 z m -2.898,0 -1.947,0 c -0.1036,0 -0.1881,0.0846 -0.1881,0.188 l 0,0.4224 c 0,0.1031 0.0845,0.1878 0.1881,0.1878 l 1.947,0 c 0.1034,0 0.1878,-0.0847 0.1878,-0.1878 l 0,-0.4224 c 0,-0.1034 -0.0844,-0.188 -0.1878,-0.188 z m 2.898,1.3847 -1.9473,0 c -0.1036,0 -0.1881,0.0841 -0.1881,0.1875 l 0,0.4221 c 0,0.1034 0.0845,0.1876 0.1881,0.1876 l 1.9473,0 c 0.1031,0 0.1878,-0.0842 0.1878,-0.1876 l 0,-0.4221 c 0,-0.1034 -0.0847,-0.1875 -0.1878,-0.1875 z m 0,1.3839 -1.9473,0 c -0.1036,0 -0.1881,0.0845 -0.1881,0.1876 l 0,0.4224 c 0,0.1036 0.0845,0.188 0.1881,0.188 l 1.9473,0 c 0.1031,0 0.1878,-0.0844 0.1878,-0.188 l 0,-0.4224 c 0,-0.1031 -0.0847,-0.1876 -0.1878,-0.1876 z m 0,1.384 -1.9473,0 c -0.1036,0 -0.1881,0.0847 -0.1881,0.1878 l 0,0.4224 c 0,0.1033 0.0845,0.1878 0.1881,0.1878 l 1.9473,0 c 0.1031,0 0.1878,-0.0845 0.1878,-0.1878 l 0,-0.4224 c 0,-0.1031 -0.0847,-0.1878 -0.1878,-0.1878 z m 0,1.3845 -1.9473,0 c -0.1036,0 -0.1881,0.0842 -0.1881,0.1875 l 0,0.4227 c 0,0.1031 0.0845,0.1875 0.1881,0.1875 l 1.9473,0 c 0.1031,0 0.1878,-0.0844 0.1878,-0.1875 l 0,-0.4227 c 0,-0.1033 -0.0847,-0.1875 -0.1878,-0.1875 z m 0,1.3842 -1.9473,0 c -0.1036,0 -0.1881,0.0842 -0.1881,0.1875 l 0,0.4224 c 0,0.1036 0.0845,0.1878 0.1881,0.1878 l 1.9473,0 c 0.1031,0 0.1878,-0.0842 0.1878,-0.1878 l 0,-0.4224 c 0,-0.1033 -0.0847,-0.1875 -0.1878,-0.1875 z m -2.898,-5.5366 -1.947,0 c -0.1036,0 -0.1881,0.0841 -0.1881,0.1875 l 0,0.4221 c 0,0.1034 0.0845,0.1876 0.1881,0.1876 l 1.947,0 c 0.1034,0 0.1878,-0.0842 0.1878,-0.1876 l 0,-0.4221 c 0,-0.1034 -0.0844,-0.1875 -0.1878,-0.1875 z m 0,1.3839 -1.947,0 c -0.1036,0 -0.1881,0.0845 -0.1881,0.1876 l 0,0.4224 c 0,0.1036 0.0845,0.188 0.1881,0.188 l 1.947,0 c 0.1034,0 0.1878,-0.0844 0.1878,-0.188 l 0,-0.4224 c 0,-0.1031 -0.0844,-0.1876 -0.1878,-0.1876 z m 0,1.384 -1.947,0 c -0.1036,0 -0.1881,0.0847 -0.1881,0.1878 l 0,0.4224 c 0,0.1033 0.0845,0.1878 0.1881,0.1878 l 1.947,0 c 0.1034,0 0.1878,-0.0845 0.1878,-0.1878 l 0,-0.4224 c 0,-0.1031 -0.0844,-0.1878 -0.1878,-0.1878 z m 0,1.3845 -1.947,0 c -0.1036,0 -0.1881,0.0842 -0.1881,0.1875 l 0,0.4227 c 0,0.1031 0.0845,0.1875 0.1881,0.1875 l 1.947,0 c 0.1034,0 0.1878,-0.0844 0.1878,-0.1875 l 0,-0.4227 c 0,-0.1033 -0.0844,-0.1875 -0.1878,-0.1875 z m 0,1.3842 -1.947,0 c -0.1036,0 -0.1881,0.0842 -0.1881,0.1875 l 0,0.4224 c 0,0.1036 0.0845,0.1878 0.1881,0.1878 l 1.947,0 c 0.1034,0 0.1878,-0.0842 0.1878,-0.1878 l 0,-0.4224 c 0,-0.1033 -0.0844,-0.1875 -0.1878,-0.1875 z" />
    <path
       id="path20"
       style="fill:#ffffff;fill-rule:evenodd"
       d="m 424.2483,420.063 -2.3465,0 c -0.9295,0 -1.6888,0.7601 -1.6888,1.689 l 0,23.9801 5.7247,0 0,-23.9801 c 0,-0.9289 -0.7604,-1.689 -1.6894,-1.689 z m -0.1885,1.6776 -0.1053,0 c -0.1355,0 -0.2461,0.1108 -0.2461,0.2463 l 0,0.657 c 0,0.1357 0.1106,0.2463 0.2461,0.2463 l 0.1053,0 c 0.1358,0 0.2468,-0.1106 0.2468,-0.2463 l 0,-0.657 c 0,-0.1355 -0.111,-0.2463 -0.2468,-0.2463 z m -1.2671,0 -0.1051,0 c -0.1358,0 -0.2471,0.1108 -0.2471,0.2463 l 0,0.657 c 0,0.1357 0.1113,0.2463 0.2471,0.2463 l 0.1051,0 c 0.1357,0 0.2463,-0.1106 0.2463,-0.2463 l 0,-0.657 c 0,-0.1355 -0.1106,-0.2463 -0.2463,-0.2463 z m -1.2677,0 -0.1054,0 c -0.1357,0 -0.2468,0.1108 -0.2468,0.2463 l 0,0.657 c 0,0.1357 0.1111,0.2463 0.2468,0.2463 l 0.1054,0 c 0.1355,0 0.2463,-0.1106 0.2463,-0.2463 l 0,-0.657 c 0,-0.1355 -0.1108,-0.2463 -0.2463,-0.2463 z m 2.5348,1.8536 -0.1053,0 c -0.1355,0 -0.2461,0.1109 -0.2461,0.2461 l 0,0.657 c 0,0.1357 0.1106,0.2468 0.2461,0.2468 l 0.1053,0 c 0.1358,0 0.2468,-0.1111 0.2468,-0.2468 l 0,-0.657 c 0,-0.1352 -0.111,-0.2461 -0.2468,-0.2461 z m 0,1.8537 -0.1053,0 c -0.1355,0 -0.2461,0.1106 -0.2461,0.2461 l 0,0.6567 c 0,0.1358 0.1106,0.2468 0.2461,0.2468 l 0.1053,0 c 0.1358,0 0.2468,-0.111 0.2468,-0.2468 l 0,-0.6567 c 0,-0.1355 -0.111,-0.2461 -0.2468,-0.2461 z m 0,1.8535 -0.1053,0 c -0.1355,0 -0.2461,0.1105 -0.2461,0.246 l 0,0.6568 c 0,0.1357 0.1106,0.2468 0.2461,0.2468 l 0.1053,0 c 0.1358,0 0.2468,-0.1111 0.2468,-0.2468 l 0,-0.6568 c 0,-0.1355 -0.111,-0.246 -0.2468,-0.246 z m 0,1.8534 -0.1053,0 c -0.1355,0 -0.2461,0.1106 -0.2461,0.246 l 0,0.657 c 0,0.1358 0.1106,0.2466 0.2461,0.2466 l 0.1053,0 c 0.1358,0 0.2468,-0.1108 0.2468,-0.2466 l 0,-0.657 c 0,-0.1354 -0.111,-0.246 -0.2468,-0.246 z m 0,1.8534 -0.1053,0 c -0.1355,0 -0.2461,0.1111 -0.2461,0.2466 l 0,0.6567 c 0,0.1357 0.1106,0.2466 0.2461,0.2466 l 0.1053,0 c 0.1358,0 0.2468,-0.1109 0.2468,-0.2466 l 0,-0.6567 c 0,-0.1355 -0.111,-0.2466 -0.2468,-0.2466 z m 0,1.8537 -0.1053,0 c -0.1355,0 -0.2461,0.1108 -0.2461,0.2463 l 0,0.657 c 0,0.1357 0.1106,0.2463 0.2461,0.2463 l 0.1053,0 c 0.1358,0 0.2468,-0.1106 0.2468,-0.2463 l 0,-0.657 c 0,-0.1355 -0.111,-0.2463 -0.2468,-0.2463 z m 0,1.8534 -0.1053,0 c -0.1355,0 -0.2461,0.1111 -0.2461,0.2463 l 0,0.657 c 0,0.1358 0.1106,0.2463 0.2461,0.2463 l 0.1053,0 c 0.1358,0 0.2468,-0.1105 0.2468,-0.2463 l 0,-0.657 c 0,-0.1352 -0.111,-0.2463 -0.2468,-0.2463 z m 0,1.8535 -0.1053,0 c -0.1355,0 -0.2461,0.111 -0.2461,0.2465 l 0,0.6568 c 0,0.1357 0.1106,0.2463 0.2461,0.2463 l 0.1053,0 c 0.1358,0 0.2468,-0.1106 0.2468,-0.2463 l 0,-0.6568 c 0,-0.1355 -0.111,-0.2465 -0.2468,-0.2465 z m 0,1.8536 -0.1053,0 c -0.1355,0 -0.2461,0.1109 -0.2461,0.2463 l 0,0.6568 c 0,0.1357 0.1106,0.2465 0.2461,0.2465 l 0.1053,0 c 0.1358,0 0.2468,-0.1108 0.2468,-0.2465 l 0,-0.6568 c 0,-0.1354 -0.111,-0.2463 -0.2468,-0.2463 z m -1.2671,-14.8282 -0.1051,0 c -0.1358,0 -0.2471,0.1109 -0.2471,0.2461 l 0,0.657 c 0,0.1357 0.1113,0.2468 0.2471,0.2468 l 0.1051,0 c 0.1357,0 0.2463,-0.1111 0.2463,-0.2468 l 0,-0.657 c 0,-0.1352 -0.1106,-0.2461 -0.2463,-0.2461 z m 0,1.8537 -0.1051,0 c -0.1358,0 -0.2471,0.1106 -0.2471,0.2461 l 0,0.6567 c 0,0.1358 0.1113,0.2468 0.2471,0.2468 l 0.1051,0 c 0.1357,0 0.2463,-0.111 0.2463,-0.2468 l 0,-0.6567 c 0,-0.1355 -0.1106,-0.2461 -0.2463,-0.2461 z m 0,1.8535 -0.1051,0 c -0.1358,0 -0.2471,0.1105 -0.2471,0.246 l 0,0.6568 c 0,0.1357 0.1113,0.2468 0.2471,0.2468 l 0.1051,0 c 0.1357,0 0.2463,-0.1111 0.2463,-0.2468 l 0,-0.6568 c 0,-0.1355 -0.1106,-0.246 -0.2463,-0.246 z m 0,1.8534 -0.1051,0 c -0.1358,0 -0.2471,0.1106 -0.2471,0.246 l 0,0.657 c 0,0.1358 0.1113,0.2466 0.2471,0.2466 l 0.1051,0 c 0.1357,0 0.2463,-0.1108 0.2463,-0.2466 l 0,-0.657 c 0,-0.1354 -0.1106,-0.246 -0.2463,-0.246 z m 0,1.8534 -0.1051,0 c -0.1358,0 -0.2471,0.1111 -0.2471,0.2466 l 0,0.6567 c 0,0.1357 0.1113,0.2466 0.2471,0.2466 l 0.1051,0 c 0.1357,0 0.2463,-0.1109 0.2463,-0.2466 l 0,-0.6567 c 0,-0.1355 -0.1106,-0.2466 -0.2463,-0.2466 z m 0,1.8537 -0.1051,0 c -0.1358,0 -0.2471,0.1108 -0.2471,0.2463 l 0,0.657 c 0,0.1357 0.1113,0.2463 0.2471,0.2463 l 0.1051,0 c 0.1357,0 0.2463,-0.1106 0.2463,-0.2463 l 0,-0.657 c 0,-0.1355 -0.1106,-0.2463 -0.2463,-0.2463 z m 0,1.8534 -0.1051,0 c -0.1358,0 -0.2471,0.1111 -0.2471,0.2463 l 0,0.657 c 0,0.1358 0.1113,0.2463 0.2471,0.2463 l 0.1051,0 c 0.1357,0 0.2463,-0.1105 0.2463,-0.2463 l 0,-0.657 c 0,-0.1352 -0.1106,-0.2463 -0.2463,-0.2463 z m 0,1.8535 -0.1051,0 c -0.1358,0 -0.2471,0.111 -0.2471,0.2465 l 0,0.6568 c 0,0.1357 0.1113,0.2463 0.2471,0.2463 l 0.1051,0 c 0.1357,0 0.2463,-0.1106 0.2463,-0.2463 l 0,-0.6568 c 0,-0.1355 -0.1106,-0.2465 -0.2463,-0.2465 z m 0,1.8536 -0.1051,0 c -0.1358,0 -0.2471,0.1109 -0.2471,0.2463 l 0,0.6568 c 0,0.1357 0.1113,0.2465 0.2471,0.2465 l 0.1051,0 c 0.1357,0 0.2463,-0.1108 0.2463,-0.2465 l 0,-0.6568 c 0,-0.1354 -0.1106,-0.2463 -0.2463,-0.2463 z m -1.2677,-14.8282 -0.1054,0 c -0.1357,0 -0.2468,0.1109 -0.2468,0.2461 l 0,0.657 c 0,0.1357 0.1111,0.2468 0.2468,0.2468 l 0.1054,0 c 0.1355,0 0.2463,-0.1111 0.2463,-0.2468 l 0,-0.657 c 0,-0.1352 -0.1108,-0.2461 -0.2463,-0.2461 z m 0,1.8537 -0.1054,0 c -0.1357,0 -0.2468,0.1106 -0.2468,0.2461 l 0,0.6567 c 0,0.1358 0.1111,0.2468 0.2468,0.2468 l 0.1054,0 c 0.1355,0 0.2463,-0.111 0.2463,-0.2468 l 0,-0.6567 c 0,-0.1355 -0.1108,-0.2461 -0.2463,-0.2461 z m 0,1.8535 -0.1054,0 c -0.1357,0 -0.2468,0.1105 -0.2468,0.246 l 0,0.6568 c 0,0.1357 0.1111,0.2468 0.2468,0.2468 l 0.1054,0 c 0.1355,0 0.2463,-0.1111 0.2463,-0.2468 l 0,-0.6568 c 0,-0.1355 -0.1108,-0.246 -0.2463,-0.246 z m 0,1.8534 -0.1054,0 c -0.1357,0 -0.2468,0.1106 -0.2468,0.246 l 0,0.657 c 0,0.1358 0.1111,0.2466 0.2468,0.2466 l 0.1054,0 c 0.1355,0 0.2463,-0.1108 0.2463,-0.2466 l 0,-0.657 c 0,-0.1354 -0.1108,-0.246 -0.2463,-0.246 z m 0,1.8534 -0.1054,0 c -0.1357,0 -0.2468,0.1111 -0.2468,0.2466 l 0,0.6567 c 0,0.1357 0.1111,0.2466 0.2468,0.2466 l 0.1054,0 c 0.1355,0 0.2463,-0.1109 0.2463,-0.2466 l 0,-0.6567 c 0,-0.1355 -0.1108,-0.2466 -0.2463,-0.2466 z m 0,1.8537 -0.1054,0 c -0.1357,0 -0.2468,0.1108 -0.2468,0.2463 l 0,0.657 c 0,0.1357 0.1111,0.2463 0.2468,0.2463 l 0.1054,0 c 0.1355,0 0.2463,-0.1106 0.2463,-0.2463 l 0,-0.657 c 0,-0.1355 -0.1108,-0.2463 -0.2463,-0.2463 z m 0,1.8534 -0.1054,0 c -0.1357,0 -0.2468,0.1111 -0.2468,0.2463 l 0,0.657 c 0,0.1358 0.1111,0.2463 0.2468,0.2463 l 0.1054,0 c 0.1355,0 0.2463,-0.1105 0.2463,-0.2463 l 0,-0.657 c 0,-0.1352 -0.1108,-0.2463 -0.2463,-0.2463 z m 0,1.8535 -0.1054,0 c -0.1357,0 -0.2468,0.111 -0.2468,0.2465 l 0,0.6568 c 0,0.1357 0.1111,0.2463 0.2468,0.2463 l 0.1054,0 c 0.1355,0 0.2463,-0.1106 0.2463,-0.2463 l 0,-0.6568 c 0,-0.1355 -0.1108,-0.2465 -0.2463,-0.2465 z m 0,1.8536 -0.1054,0 c -0.1357,0 -0.2468,0.1109 -0.2468,0.2463 l 0,0.6568 c 0,0.1357 0.1111,0.2465 0.2468,0.2465 l 0.1054,0 c 0.1355,0 0.2463,-0.1108 0.2463,-0.2465 l 0,-0.6568 c 0,-0.1354 -0.1108,-0.2463 -0.2463,-0.2463 z" />
    <path
       id="path22"
       style="fill:#ffffff;fill-rule:evenodd"
       d="m 419.1331,428.9802 -3.7103,0 c -0.7746,0 -1.4079,0.6333 -1.4079,1.4076 l 0,15.3445 6.5263,0 0,-15.3445 c 0,-0.7743 -0.6335,-1.4076 -1.4081,-1.4076 z m 0.0438,1.3374 -0.305,0 c -0.1555,0 -0.2815,0.1265 -0.2815,0.2812 l 0,1.0796 0.868,0 0,-1.0796 c 0,-0.1547 -0.1265,-0.2812 -0.2815,-0.2812 z m -1.232,0 -0.3053,0 c -0.1545,0 -0.2812,0.1265 -0.2812,0.2812 l 0,1.0796 0.8679,0 0,-1.0796 c 0,-0.1547 -0.1265,-0.2812 -0.2814,-0.2812 z m -1.2318,0 -0.3051,0 c -0.1547,0 -0.2814,0.1265 -0.2814,0.2812 l 0,1.0796 0.8679,0 0,-1.0796 c 0,-0.1547 -0.1268,-0.2812 -0.2814,-0.2812 z m -1.2316,0 -0.3055,0 c -0.1547,0 -0.2815,0.1265 -0.2815,0.2812 l 0,1.0796 0.868,0 0,-1.0796 c 0,-0.1547 -0.1263,-0.2812 -0.281,-0.2812 z m 3.6954,1.9237 -0.305,0 c -0.1555,0 -0.2815,0.1267 -0.2815,0.2814 l 0,1.0796 0.868,0 0,-1.0796 c 0,-0.1547 -0.1265,-0.2814 -0.2815,-0.2814 z m 0,1.9239 -0.305,0 c -0.1555,0 -0.2815,0.1267 -0.2815,0.2814 l 0,1.0794 0.868,0 0,-1.0794 c 0,-0.1547 -0.1265,-0.2814 -0.2815,-0.2814 z m 0,1.9239 -0.305,0 c -0.1555,0 -0.2815,0.1267 -0.2815,0.2817 l 0,1.0791 0.868,0 0,-1.0791 c 0,-0.155 -0.1265,-0.2817 -0.2815,-0.2817 z m -1.232,-3.8478 -0.3053,0 c -0.1545,0 -0.2812,0.1267 -0.2812,0.2814 l 0,1.0796 0.8679,0 0,-1.0796 c 0,-0.1547 -0.1265,-0.2814 -0.2814,-0.2814 z m 0,1.9239 -0.3053,0 c -0.1545,0 -0.2812,0.1267 -0.2812,0.2814 l 0,1.0794 0.8679,0 0,-1.0794 c 0,-0.1547 -0.1265,-0.2814 -0.2814,-0.2814 z m 0,1.9239 -0.3053,0 c -0.1545,0 -0.2812,0.1267 -0.2812,0.2817 l 0,1.0791 0.8679,0 0,-1.0791 c 0,-0.155 -0.1265,-0.2817 -0.2814,-0.2817 z m -1.2318,-3.8478 -0.3051,0 c -0.1547,0 -0.2814,0.1267 -0.2814,0.2814 l 0,1.0796 0.8679,0 0,-1.0796 c 0,-0.1547 -0.1268,-0.2814 -0.2814,-0.2814 z m 0,1.9239 -0.3051,0 c -0.1547,0 -0.2814,0.1267 -0.2814,0.2814 l 0,1.0794 0.8679,0 0,-1.0794 c 0,-0.1547 -0.1268,-0.2814 -0.2814,-0.2814 z m 0,1.9239 -0.3051,0 c -0.1547,0 -0.2814,0.1267 -0.2814,0.2817 l 0,1.0791 0.8679,0 0,-1.0791 c 0,-0.155 -0.1268,-0.2817 -0.2814,-0.2817 z m -1.2316,-3.8478 -0.3055,0 c -0.1547,0 -0.2815,0.1267 -0.2815,0.2814 l 0,1.0796 0.868,0 0,-1.0796 c 0,-0.1547 -0.1263,-0.2814 -0.281,-0.2814 z m 0,1.9239 -0.3055,0 c -0.1547,0 -0.2815,0.1267 -0.2815,0.2814 l 0,1.0794 0.868,0 0,-1.0794 c 0,-0.1547 -0.1263,-0.2814 -0.281,-0.2814 z m 0,1.9239 -0.3055,0 c -0.1547,0 -0.2815,0.1267 -0.2815,0.2817 l 0,1.0791 0.868,0 0,-1.0791 c 0,-0.155 -0.1263,-0.2817 -0.281,-0.2817 z" />
    <path
       id="path24"
       style="fill:#ffffff;fill-rule:evenodd"
       d="m 413.9673,424.2405 -2.9091,0 c -1.0062,0 -1.8301,0.8236 -1.8301,1.83 l 0,19.6616 6.5697,0 0,-19.6616 c 0,-1.0064 -0.8233,-1.83 -1.8305,-1.83 z m 0.6456,1.7364 -0.61,0 0,1.1967 0.61,0 0,-1.1967 z m -1.267,0 -0.6101,0 0,1.1967 0.6101,0 0,-1.1967 z m -1.2671,0 -0.6102,0 0,1.1967 0.6102,0 0,-1.1967 z m -1.2672,0 -0.6102,0 0,1.1967 0.6102,0 0,-1.1967 z m 3.8013,1.8537 -0.61,0 0,1.1964 0.61,0 0,-1.1964 z m -1.267,0 -0.6101,0 0,1.1964 0.6101,0 0,-1.1964 z m -1.2671,0 -0.6102,0 0,1.1964 0.6102,0 0,-1.1964 z m -1.2672,0 -0.6102,0 0,1.1964 0.6102,0 0,-1.1964 z m 2.5343,1.7476 -0.6101,0 0,1.1967 0.6101,0 0,-1.1967 z m 0,1.7476 -0.6101,0 0,1.1966 0.6101,0 0,-1.1966 z m 0,1.7478 -0.6101,0 0,1.1964 0.6101,0 0,-1.1964 z m 0,1.7476 -0.6101,0 0,1.1967 0.6101,0 0,-1.1967 z m 0,1.7476 -0.6101,0 0,1.1969 0.6101,0 0,-1.1969 z m 0,1.7478 -0.6101,0 0,1.1969 0.6101,0 0,-1.1969 z m -1.2671,-8.7384 -0.6102,0 0,1.1967 0.6102,0 0,-1.1967 z m 0,1.7476 -0.6102,0 0,1.1966 0.6102,0 0,-1.1966 z m 0,1.7478 -0.6102,0 0,1.1964 0.6102,0 0,-1.1964 z m 0,1.7476 -0.6102,0 0,1.1967 0.6102,0 0,-1.1967 z m 0,1.7476 -0.6102,0 0,1.1969 0.6102,0 0,-1.1969 z m 0,1.7478 -0.6102,0 0,1.1969 0.6102,0 0,-1.1969 z m -1.2672,-8.7384 -0.6102,0 0,1.1967 0.6102,0 0,-1.1967 z m 0,1.7476 -0.6102,0 0,1.1966 0.6102,0 0,-1.1966 z m 0,1.7478 -0.6102,0 0,1.1964 0.6102,0 0,-1.1964 z m 0,1.7476 -0.6102,0 0,1.1967 0.6102,0 0,-1.1967 z m 0,1.7476 -0.6102,0 0,1.1969 0.6102,0 0,-1.1969 z m 0,1.7478 -0.6102,0 0,1.1969 0.6102,0 0,-1.1969 z" />
    <path
       id="path26"
       style="fill:#ffffff;fill-rule:evenodd"
       d="m 361.3978,438.9566 -0.8253,0 0.1624,-0.6806 0.5379,0 0.125,0.6806 z m 5.0184,6.1055 -0.7198,0 0,-0.4687 c 0,-0.3591 -0.1372,-0.666 -0.4102,-0.923 -0.2737,-0.2543 -0.6009,-0.383 -0.984,-0.383 -0.3837,0 -0.7115,0.1287 -0.982,0.383 -0.2714,0.257 -0.4067,0.5639 -0.4067,0.923 l -0.007,0.4687 -3.7776,0 0,-5.9827 7.287,0 0,5.9827 z m -0.9447,-0.4072 c 0,0.2974 -0.1128,0.5504 -0.3399,0.7611 -0.2269,0.21 -0.4961,0.3161 -0.8109,0.3161 -0.3191,0 -0.5903,-0.1061 -0.8152,-0.3161 -0.2236,-0.2107 -0.3359,-0.4637 -0.3359,-0.7611 0,-0.2976 0.1123,-0.5509 0.3359,-0.7608 0.2249,-0.2105 0.4961,-0.3163 0.8152,-0.3163 0.3148,0 0.584,0.1058 0.8109,0.3163 0.2271,0.2099 0.3399,0.4632 0.3399,0.7608 z m -6.5547,-0.7125 c -0.261,-0.4374 -0.6446,-0.655 -1.1511,-0.655 -0.3838,0 -0.7111,0.1287 -0.982,0.383 -0.2712,0.257 -0.4065,0.5639 -0.4065,0.923 l 0,0.4687 -0.6129,0 0,-2.8798 c 0,-0.2976 0.2164,-0.4465 0.6483,-0.4465 l 0.2398,0 0.6167,-1.3352 c 0.0859,-0.1808 0.2378,-0.2717 0.4572,-0.2717 l 1.1905,0 0,3.8135 z m 0,0.7125 c 0,0.2974 -0.1128,0.5504 -0.336,0.7611 -0.2254,0.21 -0.4958,0.3161 -0.8151,0.3161 -0.3191,0 -0.59,-0.1061 -0.8154,-0.3161 -0.2232,-0.2107 -0.3355,-0.4637 -0.3355,-0.7611 0,-0.2976 0.1123,-0.5509 0.3355,-0.7608 0.2254,-0.2105 0.4963,-0.3163 0.8154,-0.3163 0.3193,0 0.5897,0.1058 0.8151,0.3163 0.2232,0.2099 0.336,0.4632 0.336,0.7608 z m 5.8168,-2.4838 0,-1.5623 -1.239,0 0,-1.105 -1.7508,0 0,1.105 -1.2386,0 0,1.5623 1.2386,0 0,1.1053 1.7508,0 0,-1.1053 1.239,0 z m -6.0173,-0.4353 0,-1.3167 -1.251,0 -0.5626,1.3167 1.8136,0 z" />
    <path
       id="path28"
       style="fill:#ffffff;fill-rule:evenodd"
       d="m 429.2592,433.6419 0,-5.6679 0.001,-0.004 c 0,-0.0115 -10e-4,-4.0491 3.4969,-4.0491 2.4118,0 2.9886,1.4373 3.1106,2.3553 0.4426,0.1103 0.7815,0.4812 0.8456,0.9402 l -0.5734,0 c -0.0166,0.2879 -0.2555,0.516 -0.5479,0.516 -0.2911,0 -0.5302,-0.2281 -0.5469,-0.516 l -0.5735,0 c 0.0617,-0.4448 0.382,-0.8067 0.8041,-0.929 -0.1235,-0.7245 -0.6286,-1.7814 -2.5186,-1.7814 -2.8646,0 -2.9129,3.3474 -2.9141,3.4677 l 0.002,0 0,5.6679 -0.5856,0 z" />
    <path
       id="path30"
       style="fill:#ffffff;fill-rule:evenodd"
       d="m 451.0285,442.5265 c 0,0.4404 -0.0787,0.8513 -0.2356,1.2298 l -3e-4,-2e-4 c -0.1569,0.3793 -0.3913,0.7247 -0.7018,1.0358 l -5e-4,0 c -0.3118,0.3098 -0.6575,0.5432 -1.0348,0.6996 -0.3781,0.1559 -0.7868,0.2346 -1.2241,0.2346 -0.4413,0 -0.853,-0.0787 -1.2335,-0.2354 -0.3806,-0.1571 -0.7273,-0.3917 -1.0378,-0.7023 l 0,-7e-4 c -0.3109,-0.3114 -0.5452,-0.6555 -0.7019,-1.0336 l -5e-4,2e-4 c -0.1561,-0.3783 -0.2353,-0.7889 -0.2353,-1.2313 0,-0.3163 0.0431,-0.6198 0.1292,-0.911 0.0377,-0.127 0.084,-0.2518 0.1385,-0.3741 l -1.6721,2.0196 -0.0633,0.076 -0.0988,-0.01 -0.6949,-0.0665 c -0.0707,0.3101 -0.1825,0.599 -0.3365,0.8659 -0.1815,0.3146 -0.4206,0.5973 -0.7152,0.8473 -0.2961,0.2506 -0.6172,0.4393 -0.9616,0.5656 -0.3452,0.1263 -0.713,0.1898 -1.1038,0.1898 -0.4371,0 -0.8445,-0.0787 -1.2211,-0.2346 l 0,0 c -0.3773,-0.1564 -0.7215,-0.3898 -1.0328,-0.6996 l -0.001,0 c -0.6252,-0.6251 -0.9375,-1.3805 -0.9375,-2.2654 0,-0.4358 0.0785,-0.8428 0.2349,-1.2191 0.1556,-0.3758 0.3892,-0.7205 0.6993,-1.0323 l 5e-4,-0.001 c 0.3118,-0.3095 0.6573,-0.5429 1.0358,-0.6993 0.3791,-0.1562 0.7888,-0.2346 1.2291,-0.2346 0.2152,0 0.4256,0.0199 0.6308,0.0608 0.1462,0.0288 0.2907,0.0687 0.4329,0.1195 l 0.6263,-1.381 -0.2363,-0.6664 -0.0595,-0.1687 0.0515,-0.0204 -0.0857,-0.251 c -0.0587,-0.002 -0.1155,-0.007 -0.1691,-0.0125 -0.0986,-0.0107 -0.1865,-0.0271 -0.2635,-0.0473 l 0,0 c -0.1402,-0.0376 -0.2503,-0.0911 -0.3295,-0.1624 l -2e-4,3e-4 c -0.0976,-0.0882 -0.1469,-0.1963 -0.1469,-0.3263 0,-0.1766 0.0358,-0.3145 0.1068,-0.4151 l 0.001,0 c 0.0859,-0.1218 0.2092,-0.1818 0.3706,-0.1818 0.1163,0 0.2782,0.0251 0.4789,0.0752 l 0,2e-4 c 0.1714,0.0424 0.2889,0.0635 0.3509,0.0635 0.0414,0 0.0892,-0.002 0.1435,-0.007 0.0617,-0.005 0.1257,-0.0122 0.189,-0.0207 0.0747,-0.0102 0.1375,-0.0174 0.1845,-0.0226 l 8e-4,0 c 0.0578,-0.006 0.0989,-0.009 0.121,-0.009 0.1148,0 0.205,0.0421 0.2705,0.125 l 0,8e-4 c 0.0538,0.0695 0.0817,0.1611 0.0817,0.2727 0,0.0849 -0.0521,0.1663 -0.1549,0.2438 -0.0618,0.0463 -0.1502,0.1004 -0.2648,0.1621 -0.11,0.0591 -0.2131,0.1089 -0.309,0.1485 l 2e-4,2e-4 -0.0717,0.0284 0.0309,0.0832 0.0406,-0.0269 0.0822,0.2221 0.1496,0.4065 4.0894,0 -0.2849,-0.7808 -0.0114,-0.0637 0,-0.3373 0,-0.187 0.1868,0 1.7463,0 0.187,0 0,0.187 0,0.3373 0,0.1872 -0.187,0 -1.1434,0 0.8836,2.4716 c 0.1096,-0.0289 0.2194,-0.0515 0.329,-0.0687 l 3e-4,0 c 0.1703,-0.0262 0.3439,-0.0391 0.5192,-0.0391 0.4431,0 0.8545,0.0772 1.2346,0.2331 l 0,2e-4 c 0.38,0.1555 0.7255,0.3883 1.0368,0.6974 0.3118,0.3103 0.5462,0.6545 0.7026,1.0303 0.1569,0.3771 0.2356,0.786 0.2356,1.2253 z m -5.0366,-2.6182 c 0.1106,-0.077 0.2267,-0.1467 0.3479,-0.2102 l -0.0553,-0.1432 -0.2926,0.3534 z m 4.3248,2.6247 c 0,-0.3429 -0.0608,-0.66 -0.1821,-0.9501 -0.121,-0.2912 -0.3046,-0.5591 -0.5494,-0.8025 -0.2451,-0.2433 -0.5155,-0.4261 -0.8082,-0.5474 -0.2933,-0.1205 -0.6131,-0.1813 -0.9581,-0.1813 -0.1315,0 -0.2642,0.0102 -0.3969,0.0304 -0.0715,0.011 -0.1432,0.0252 -0.2147,0.0418 0.1375,0.3784 0.2587,0.7101 0.3638,0.9905 0.1278,0.3405 0.2411,0.6361 0.3412,0.8856 l 5e-4,0 0.2249,0.5554 0.0135,0.0703 c 0,0.0919 -0.0309,0.1668 -0.0914,0.2229 l -0.001,0.002 c -0.0565,0.0513 -0.1307,0.0784 -0.2196,0.0784 -0.1178,0 -0.2242,-0.0747 -0.3193,-0.2226 -0.065,-0.1011 -0.1338,-0.2483 -0.2065,-0.4411 l -0.72,-1.9032 c -0.3935,0.2109 -0.6943,0.4794 -0.9018,0.8042 -0.2381,0.373 -0.3571,0.8273 -0.3571,1.3605 0,0.3442 0.0605,0.6618 0.1818,0.9531 0.1213,0.2922 0.3048,0.5612 0.5501,0.8062 l 0,-2e-4 c 0.2444,0.244 0.5123,0.4268 0.8032,0.5471 0.2919,0.1206 0.6112,0.1813 0.9559,0.1813 0.3452,0 0.6644,-0.0607 0.9561,-0.181 0.2916,-0.1211 0.5598,-0.3036 0.8039,-0.5474 0.2448,-0.2436 0.4284,-0.5116 0.5494,-0.8022 0.1216,-0.2909 0.1821,-0.6077 0.1821,-0.9504 z m -4.2912,-3.7166 -0.179,-0.4906 -4.0802,0 1.4211,3.9009 2.8381,-3.4103 z m -3.476,3.7345 -0.1242,-0.3402 c 0.008,0.1019 0.0122,0.2062 0.0122,0.3123 l 0,0.019 0.112,0.009 z m -0.7045,-1.9244 -0.5674,-1.5521 -0.3364,0.7527 c 0.3698,0.2254 0.6712,0.4918 0.9038,0.7994 z m -0.1196,1.8477 c -0.007,-0.4587 -0.1113,-0.8599 -0.3128,-1.2029 -0.1783,-0.3046 -0.4361,-0.5681 -0.7725,-0.789 l -0.8149,1.8193 1.9002,0.1726 z m -0.0804,0.7175 -2.6158,-0.245 -0.2622,-0.0242 0.1093,-0.2388 1.1466,-2.503 c -0.0988,-0.0333 -0.1967,-0.0602 -0.2946,-0.0804 -0.1566,-0.0324 -0.3168,-0.0486 -0.4774,-0.0486 -0.345,0 -0.6632,0.0608 -0.9549,0.1813 l -10e-4,0 c -0.2901,0.1206 -0.5588,0.3034 -0.8032,0.5474 -0.4854,0.4859 -0.7292,1.0705 -0.7292,1.7526 0,0.3429 0.0608,0.66 0.1808,0.9499 0.1206,0.2909 0.3026,0.5593 0.5452,0.8032 0.2413,0.2433 0.5086,0.4256 0.7987,0.5469 0.2904,0.1203 0.6079,0.181 0.9501,0.181 0.3071,0 0.5935,-0.0473 0.858,-0.1422 0.2642,-0.0949 0.5121,-0.2388 0.7419,-0.4318 l 5e-4,0 c 0.2314,-0.1928 0.4177,-0.41 0.5594,-0.6503 0.1078,-0.1843 0.1908,-0.3835 0.2478,-0.598 z" />
    <path
       id="path32"
       style="fill:#ffffff;fill-rule:evenodd"
       d="m 447.3326,430.6229 c 0.1422,0.2441 0.2139,0.4954 0.2139,0.7497 0,0.3118 -0.1004,0.577 -0.2989,0.7954 -0.1985,0.2187 -0.4445,0.3275 -0.7362,0.3275 l -2.5575,0 0,13.2366 -0.7127,0 0,-13.2366 -2.558,0 c -0.2912,0 -0.5375,-0.1088 -0.7355,-0.3275 -0.1987,-0.2184 -0.2988,-0.4836 -0.2988,-0.7954 0,-0.2543 0.0709,-0.5056 0.2134,-0.7497 l 2.695,-4.5698 c 0.2602,-0.4403 0.6062,-0.6612 1.0402,-0.6612 0.4307,0 0.7768,0.2209 1.0396,0.6612 l 2.6955,4.5698 z m -0.9908,-0.1404 -1.9961,-3.3385 c -0.3158,-0.5308 -0.5649,-0.7955 -0.7482,-0.7955 -0.1867,0 -0.4358,0.2647 -0.7531,0.7955 l -1.9911,3.3385 c -0.2324,0.3932 -0.3495,0.6864 -0.3495,0.8784 0,0.2814 0.2625,0.4224 0.7873,0.4224 l 1.9501,0 0.7127,0 1.9501,0 c 0.5243,0 0.7872,-0.141 0.7872,-0.4224 0,-0.192 -0.1165,-0.4852 -0.3494,-0.8784 z" />
    <path
       id="path34"
       style="fill:none;stroke:#f5821f;stroke-width:2.50990009;stroke-linecap:round;stroke-linejoin:round;stroke-dasharray:none"
       d="m 429.5265,387.6693 c 22.2802,10.4763 38.3636,32.2258 40.765,57.865" />
    <path
       id="path36"
       style="fill:none;stroke:#f5821f;stroke-width:2.50990009;stroke-linecap:round;stroke-linejoin:round;stroke-dasharray:none"
       d="m 328.3407,445.6753 c 2.3789,-25.2477 17.9854,-46.6613 39.7063,-57.368" />
    <path
       id="path38"
       style="fill:none;stroke:#f5821f;stroke-width:2.51020002;stroke-linecap:round;stroke-linejoin:round;stroke-dasharray:none"
       d="m 395.5194,370.948 0,-21.0676" />
    <path
       id="path40"
       style="fill:none;stroke:#f5821f;stroke-width:2.50620008;stroke-linecap:round;stroke-linejoin:round;stroke-dasharray:none"
       d="m 403.0689,370.9465 0,-9.2556" />
    <path
       id="path42"
       style="fill:none;stroke:#f5821f;stroke-width:2.51020002;stroke-linecap:round;stroke-linejoin:round;stroke-dasharray:none"
       d="m 417.6204,372.9457 5.6878,-20.2854" />
    <path
       id="path44"
       style="fill:none;stroke:#f5821f;stroke-width:2.50620008;stroke-linecap:round;stroke-linejoin:round;stroke-dasharray:none"
       d="m 424.8902,374.9886 2.4987,-8.9117" />
    <path
       id="path46"
       style="fill:none;stroke:#f5821f;stroke-width:2.51020002;stroke-linecap:round;stroke-linejoin:round;stroke-dasharray:none"
       d="m 438.3618,380.8435 10.9527,-17.9966" />
    <path
       id="path48"
       style="fill:none;stroke:#f5821f;stroke-width:2.50620008;stroke-linecap:round;stroke-linejoin:round;stroke-dasharray:none"
       d="m 444.8092,384.7698 4.8116,-7.9058" />
    <path
       id="path50"
       style="fill:none;stroke:#f5821f;stroke-width:2.51020002;stroke-linecap:round;stroke-linejoin:round;stroke-dasharray:none"
       d="m 456.2,394.041 15.4047,-14.3717" />
    <path
       id="path52"
       style="fill:none;stroke:#f5821f;stroke-width:2.50620008;stroke-linecap:round;stroke-linejoin:round;stroke-dasharray:none"
       d="m 461.3528,399.5612 6.7675,-6.314" />
    <path
       id="path54"
       style="fill:none;stroke:#f5821f;stroke-width:2.51020002;stroke-linecap:round;stroke-linejoin:round;stroke-dasharray:none"
       d="m 469.8146,411.5676 18.7128,-9.6791" />
    <path
       id="path56"
       style="fill:none;stroke:#f5821f;stroke-width:2.50620008;stroke-linecap:round;stroke-linejoin:round;stroke-dasharray:none"
       d="m 473.2828,418.2713 8.2207,-4.2515" />
    <path
       id="path58"
       style="fill:none;stroke:#f5821f;stroke-width:2.51020002;stroke-linecap:round;stroke-linejoin:round;stroke-dasharray:none"
       d="m 478.1869,432.118 20.6305,-4.267" />
    <path
       id="path60"
       style="fill:none;stroke:#f5821f;stroke-width:2.50620008;stroke-linecap:round;stroke-linejoin:round;stroke-dasharray:none"
       d="m 479.722,439.5168 9.0632,-1.8749" />
    <path
       id="path62"
       style="fill:none;stroke:#f5821f;stroke-width:2.51020002;stroke-linecap:round;stroke-linejoin:round;stroke-dasharray:none"
       d="m 318.9178,439.1758 -20.6126,-4.3546" />
    <path
       id="path64"
       style="fill:none;stroke:#f5821f;stroke-width:2.50620008;stroke-linecap:round;stroke-linejoin:round;stroke-dasharray:none"
       d="m 320.4796,431.7855 -9.0552,-1.913" />
    <path
       id="path66"
       style="fill:none;stroke:#f5821f;stroke-width:2.51020002;stroke-linecap:round;stroke-linejoin:round;stroke-dasharray:none"
       d="m 325.4464,417.9655 -18.672,-9.7578" />
    <path
       id="path68"
       style="fill:none;stroke:#f5821f;stroke-width:2.50640011;stroke-linecap:round;stroke-linejoin:round;stroke-dasharray:none"
       d="m 328.9468,411.2697 -8.2024,-4.2864" />
    <path
       id="path70"
       style="fill:none;stroke:#f5821f;stroke-width:2.51020002;stroke-linecap:round;stroke-linejoin:round;stroke-dasharray:none"
       d="M 337.4579,399.3029 322.1137,384.8667" />
    <path
       id="path72"
       style="fill:none;stroke:#f5821f;stroke-width:2.50620008;stroke-linecap:round;stroke-linejoin:round;stroke-dasharray:none"
       d="m 342.6312,393.8004 -6.7408,-6.3423" />
    <path
       id="path74"
       style="fill:none;stroke:#f5821f;stroke-width:2.51020002;stroke-linecap:round;stroke-linejoin:round;stroke-dasharray:none"
       d="M 354.0601,384.5768 343.183,366.5344" />
    <path
       id="path76"
       style="fill:none;stroke:#f5821f;stroke-width:2.50620008;stroke-linecap:round;stroke-linejoin:round;stroke-dasharray:none"
       d="m 360.5274,380.6757 -4.7785,-7.9263" />
    <path
       id="path78"
       style="fill:none;stroke:#f5821f;stroke-width:2.51020002;stroke-linecap:round;stroke-linejoin:round;stroke-dasharray:none"
       d="m 374.0199,374.8783 -5.6021,-20.3095" />
    <path
       id="path80"
       style="fill:none;stroke:#f5821f;stroke-width:2.50620008;stroke-linecap:round;stroke-linejoin:round;stroke-dasharray:none"
       d="m 381.3009,372.8705 -2.4614,-8.9225" />
    <path
       id="path82"
       style="fill:#005930;fill-rule:evenodd"
       d="m 392.6143,417.2086 c 0,2.0671 -1.6757,3.7432 -3.743,3.7432 -2.0674,0 -3.743,-1.6761 -3.743,-3.7432 0,-4.9237 7.486,-4.9237 7.486,0 z m -3.7099,6.9699 c 0,0 0.7519,-0.9573 1.709,-0.2052 0.9571,0.7521 4.3412,5.6402 8.8532,5.9822 4.5121,0.3419 5.9137,-5.0933 7.213,-7.9646 1.2988,-2.8713 1.9481,-5.982 4.0677,-5.6744 2.1192,0.3073 -4.9575,11.9295 -5.6409,16.3051 -0.6837,4.3753 -2.0592,8.52 -0.8202,16.9548 0,0 -1.3672,0.9571 -1.641,-0.2737 -0.2732,-1.2303 -0.9229,-8.2381 -3.2817,-8.6483 -2.3585,-0.4097 -3.8964,5.9481 -4.6488,8.4092 -0.7521,2.4614 -3.1445,0.581 -2.2905,-1.2306 0.855,-1.8118 5.0079,-12.767 0.3074,-17.4671 -4.6999,-4.7003 -3.8272,-6.1874 -3.8272,-6.1874 z m 10.7363,-3.5539 c 1.778,0 3.2187,1.8419 3.2187,4.1143 0,2.2723 -1.4407,4.1143 -3.2187,4.1143 -1.7775,0 -3.2177,-1.842 -3.2177,-4.1143 0,-2.2724 1.4402,-4.1143 3.2177,-4.1143 z m 31.7977,-19.0314 c 1.2473,0 2.2592,1.0116 2.2592,2.2591 0,1.2475 -1.0119,2.2591 -2.2592,2.2591 -1.2475,0 -2.2594,-1.0116 -2.2594,-2.2591 0,-1.2475 1.0119,-2.2591 2.2594,-2.2591 z m -3.8774,-6.6335 c 1.4823,0 2.684,1.2017 2.684,2.684 0,1.4824 -1.2017,2.6838 -2.684,2.6838 -1.4826,0 -2.6838,-1.2014 -2.6838,-2.6838 0,-1.4823 1.2012,-2.684 2.6838,-2.684 z m -4.7833,-11.0748 c 1.2169,0 2.2034,0.9865 2.2034,2.2039 0,1.2166 -0.9865,2.2031 -2.2034,2.2031 -1.2171,0 -2.2036,-0.9865 -2.2036,-2.2031 0,-1.2174 0.9865,-2.2039 2.2036,-2.2039 z m 0.2548,6.0846 c 1.4158,0 2.5635,1.1476 2.5635,2.5635 0,1.4163 -1.1477,2.5637 -2.5635,2.5637 -1.4159,0 -2.5635,-1.1474 -2.5635,-2.5637 0,-1.4159 1.1476,-2.5635 2.5635,-2.5635 z m -3.0168,6.6999 c 1.2366,0 2.2393,1.0022 2.2393,2.2387 0,1.2366 -1.0027,2.239 -2.2393,2.239 -1.2365,0 -2.2392,-1.0024 -2.2392,-2.239 0,-1.2365 1.0027,-2.2387 2.2392,-2.2387 z m -6.4177,-1.7777 c 0.6233,0 1.1282,0.5051 1.1282,1.1282 0,0.6226 -0.5049,1.1277 -1.1282,1.1277 -0.6227,0 -1.1282,-0.5051 -1.1282,-1.1277 0,-0.6231 0.5055,-1.1282 1.1282,-1.1282 z m 2.4489,-5.6656 c 1.2009,0 2.1747,0.9738 2.1747,2.1742 0,1.2012 -0.9738,2.1744 -2.1747,2.1744 -1.2009,0 -2.1747,-0.9732 -2.1747,-2.1744 0,-1.2004 0.9738,-2.1742 2.1747,-2.1742 z m -0.8259,-9.6141 c 2.1237,0 3.8449,1.7217 3.8449,3.8448 0,2.1234 -1.7212,3.8451 -3.8449,3.8451 -2.1234,0 -3.8446,-1.7217 -3.8446,-3.8451 0,-2.1231 1.7212,-3.8448 3.8446,-3.8448 z m -4.5902,7.6705 c 0.9628,0 1.7431,0.7808 1.7431,1.7431 0,0.9631 -0.7803,1.7436 -1.7431,1.7436 -0.9628,0 -1.7431,-0.7805 -1.7431,-1.7436 0,-0.9623 0.7803,-1.7431 1.7431,-1.7431 z m -4.4844,5.1822 c 1.831,0 3.3156,1.4849 3.3156,3.3159 0,1.8312 -1.4846,3.3158 -3.3156,3.3158 -1.831,0 -3.3159,-1.4846 -3.3159,-3.3158 0,-1.831 1.4849,-3.3159 3.3159,-3.3159 z m -3.7599,-6.6658 c 1.5673,0 2.8372,1.2704 2.8372,2.8374 0,1.5668 -1.2699,2.837 -2.8372,2.837 -1.5668,0 -2.8364,-1.2702 -2.8364,-2.837 0,-1.567 1.2696,-2.8374 2.8364,-2.8374 z m 4.5302,-5.6141 c 1.251,0 2.2649,1.0139 2.2649,2.2646 0,1.2505 -1.0139,2.2644 -2.2649,2.2644 -1.2505,0 -2.2644,-1.0139 -2.2644,-2.2644 0,-1.2507 1.0139,-2.2646 2.2644,-2.2646 z m -3.9569,-2.8115 c 0.6281,0 1.1367,0.5085 1.1367,1.1362 0,0.6278 -0.5086,1.1364 -1.1367,1.1364 -0.6276,0 -1.1362,-0.5086 -1.1362,-1.1364 0,-0.6277 0.5086,-1.1362 1.1362,-1.1362 z m -6.0763,0.7857 c 2.0766,0 3.7601,1.6839 3.7601,3.7609 0,2.0766 -1.6835,3.7607 -3.7601,3.7607 -2.0766,0 -3.7607,-1.6841 -3.7607,-3.7607 0,-2.077 1.6841,-3.7609 3.7607,-3.7609 z m -11.5201,1.2475 c 0.6234,0 1.1282,0.5054 1.1282,1.128 0,0.6229 -0.5048,1.1284 -1.1282,1.1284 -0.6224,0 -1.1279,-0.5055 -1.1279,-1.1284 0,-0.6226 0.5055,-1.128 1.1279,-1.128 z m 4.3604,0.9641 c 1.2923,0 2.3396,1.0478 2.3396,2.3396 0,1.2921 -1.0473,2.3396 -2.3396,2.3396 -1.2918,0 -2.3393,-1.0475 -2.3393,-2.3396 0,-1.2918 1.0475,-2.3396 2.3393,-2.3396 z m 2.349,6.2145 c 2.6569,0 4.8107,2.1538 4.8107,4.811 0,2.6571 -2.1538,4.8111 -4.8107,4.8111 -2.6576,0 -4.8111,-2.154 -4.8111,-4.8111 0,-2.6572 2.1535,-4.811 4.8111,-4.811 z m -2.0342,11.8267 c 0.5989,0 1.0848,0.4854 1.0848,1.0851 0,0.5992 -0.4859,1.0854 -1.0848,1.0854 -0.5995,0 -1.0856,-0.4862 -1.0856,-1.0854 0,-0.5997 0.4861,-1.0851 1.0856,-1.0851 z m 6.9647,-2.0853 c 1.8317,0 3.3161,1.4841 3.3161,3.3153 0,1.8316 -1.4844,3.3157 -3.3161,3.3157 -1.8308,0 -3.3154,-1.4841 -3.3154,-3.3157 0,-1.8312 1.4846,-3.3153 3.3154,-3.3153 z m 6.0081,4.9399 c 1.2126,0 2.1956,0.983 2.1956,2.1959 0,1.2126 -0.983,2.1954 -2.1956,2.1954 -1.2127,0 -2.1957,-0.9828 -2.1957,-2.1954 0,-1.2129 0.983,-2.1959 2.1957,-2.1959 z m 10.0187,-2.4223 c 2.5608,0 4.6371,2.0766 4.6371,4.6374 0,2.5609 -2.0763,4.637 -4.6371,4.637 -2.5607,0 -4.6375,-2.0761 -4.6375,-4.637 0,-2.5608 2.0768,-4.6374 4.6375,-4.6374 z m 10.5266,2.8502 c 1.6179,0 2.9296,1.312 2.9296,2.9298 0,1.6186 -1.3117,2.9306 -2.9296,2.9306 -1.6183,0 -2.93,-1.312 -2.93,-2.9306 0,-1.6178 1.3117,-2.9298 2.93,-2.9298 z m 5.8848,6.5933 c 1.6634,0 3.0116,1.3486 3.0116,3.0113 0,1.6631 -1.3482,3.0115 -3.0116,3.0115 -1.6631,0 -3.0112,-1.3484 -3.0112,-3.0115 0,-1.6627 1.3481,-3.0113 3.0112,-3.0113 z m -12.0298,0.7365 c 2.0678,0 3.7432,1.6758 3.7432,3.7429 0,2.0672 -1.6754,3.743 -3.7432,3.743 -2.0666,0 -3.743,-1.6758 -3.743,-3.743 0,-2.0671 1.6764,-3.7429 3.743,-3.7429 z m -9.0752,0.7857 c 1.1514,0 2.0848,0.9335 2.0848,2.0851 0,1.1516 -0.9334,2.0853 -2.0848,2.0853 -1.1518,0 -2.0855,-0.9337 -2.0855,-2.0853 0,-1.1516 0.9337,-2.0851 2.0855,-2.0851 z m -6.9173,-2.3562 c 2.163,0 3.917,1.7535 3.917,3.9168 0,2.1632 -1.754,3.9173 -3.917,3.9173 -2.1633,0 -3.9166,-1.7541 -3.9166,-3.9173 0,-2.1633 1.7533,-3.9168 3.9166,-3.9168 z m -5.4916,6.1841 c 0.8119,0 1.4702,0.6583 1.4702,1.4702 0,0.8116 -0.6583,1.4696 -1.4702,1.4696 -0.8116,0 -1.4696,-0.658 -1.4696,-1.4696 0,-0.8119 0.658,-1.4702 1.4696,-1.4702 z m -4.3815,-11.0864 c 2.6083,0 4.723,2.1146 4.723,4.7232 0,2.6083 -2.1147,4.7227 -4.723,4.7227 -2.6086,0 -4.7233,-2.1144 -4.7233,-4.7227 0,-2.6086 2.1147,-4.7232 4.7233,-4.7232 z m -12.1816,2.3002 c 1.9354,0 3.5047,1.5692 3.5047,3.5041 0,1.9351 -1.5693,3.5039 -3.5047,3.5039 -1.9351,0 -3.5038,-1.5688 -3.5038,-3.5039 0,-1.9349 1.5687,-3.5041 3.5038,-3.5041 z m -1.8795,-3.7592 c 0.7272,0 1.3162,0.589 1.3162,1.3157 0,0.7273 -0.589,1.3163 -1.3162,1.3163 -0.7265,0 -1.3158,-0.589 -1.3158,-1.3163 0,-0.7267 0.5893,-1.3157 1.3158,-1.3157 z m 6.0048,-2.4957 c 1.5329,0 2.7744,1.2422 2.7744,2.7744 0,1.5327 -1.2415,2.7744 -2.7744,2.7744 -1.5319,0 -2.7742,-1.2417 -2.7742,-2.7744 0,-1.5322 1.2423,-2.7744 2.7742,-2.7744 z m -0.2443,-6.0846 c 1.0951,0 1.9824,0.8879 1.9824,1.9825 0,1.0951 -0.8873,1.9824 -1.9824,1.9824 -1.0951,0 -1.9824,-0.8873 -1.9824,-1.9824 0,-1.0946 0.8873,-1.9825 1.9824,-1.9825 z m -7.1211,-6.3903 c 0.8931,0 1.6176,0.7242 1.6176,1.6175 0,0.8934 -0.7245,1.6179 -1.6176,1.6179 -0.8931,0 -1.6176,-0.7245 -1.6176,-1.6179 0,-0.8933 0.7245,-1.6175 1.6176,-1.6175 z m 7.1876,-3.472 c 2.1812,0 3.9497,1.7682 3.9497,3.9496 0,2.182 -1.7685,3.9505 -3.9497,3.9505 -2.1814,0 -3.9504,-1.7685 -3.9504,-3.9505 0,-2.1814 1.769,-3.9496 3.9504,-3.9496 z m -8.2368,8.2552 c 2.3032,0 4.1703,1.8669 4.1703,4.1701 0,2.3032 -1.8671,4.1704 -4.1703,4.1704 -2.303,0 -4.1704,-1.8672 -4.1704,-4.1704 0,-2.3032 1.8674,-4.1701 4.1704,-4.1701 z m -3.9649,10.0494 c 1.6614,0 3.0083,1.3472 3.0083,3.0088 0,1.6614 -1.3469,3.0083 -3.0083,3.0083 -1.6614,0 -3.0085,-1.3469 -3.0085,-3.0083 0,-1.6616 1.3471,-3.0088 3.0085,-3.0088 z m -2.0619,6.6776 c 2.2706,0 4.1126,1.8415 4.1126,4.1128 0,2.2716 -1.842,4.1133 -4.1126,4.1133 -2.2721,0 -4.1141,-1.8417 -4.1141,-4.1133 0,-2.2713 1.842,-4.1128 4.1141,-4.1128 z m 6.7448,5.5941 c 1.1705,0 2.1194,0.9489 2.1194,2.1195 0,1.1702 -0.9489,2.1194 -2.1194,2.1194 -1.1706,0 -2.1192,-0.9492 -2.1192,-2.1194 0,-1.1706 0.9486,-2.1195 2.1192,-2.1195 z m 6.2215,-0.3417 c 1.2079,0 2.1874,0.9796 2.1874,2.1879 0,1.2082 -0.9795,2.1877 -2.1874,2.1877 -1.2084,0 -2.1879,-0.9795 -2.1879,-2.1877 0,-1.2083 0.9795,-2.1879 2.1879,-2.1879 z" />
    <path
       id="path84"
       style="fill:#ffffff;fill-rule:evenodd"
       d="m 443.2979,430.2202 c 0.1124,0.0939 0.0658,-0.0184 0.2229,0.1836 0.086,0.1103 0.1552,0.0528 0.2723,-0.013 0.1334,-0.0747 0.3573,-0.1599 0.3426,-0.2779 -0.0271,-0.2172 -0.2744,-0.0386 -0.3681,0.0214 -0.2303,0.1469 -0.1514,-0.0229 -0.1942,-0.0924 -0.0409,-0.0675 -0.1549,-0.1489 -0.1883,-0.2361 -0.0234,-0.061 -0.0765,-0.2827 -0.0667,-0.3474 0.1379,0.0378 0.2914,0.1619 0.4228,0.1101 0.0723,-0.1687 -0.0455,-0.1826 -0.1753,-0.2319 -0.5989,-0.2239 -0.6435,-0.3345 -0.8614,0.0244 -0.0509,0.0829 -0.3193,0.4839 -0.3256,0.5402 -0.006,0.0613 0.0394,0.1118 0.1051,0.1038 0.0663,-0.008 0.1497,-0.1569 0.1951,-0.2268 l 0.1058,-0.1198 c 0.0809,0.1357 0.1651,0.1897 0.2062,0.2749 -0.0508,0.1156 -0.1068,0.1567 -0.0834,0.2692 0.0199,0.0972 -0.0349,0.0115 -0.008,0.3211 0.0167,0.1905 0.007,0.5578 0.0912,0.6781 0.0996,0.018 0.1295,0.0219 0.1793,-0.0503 0.0343,-0.119 -0.0471,-0.6209 -0.0471,-0.7999 0.1395,-0.0874 0.0692,-0.0239 0.1552,-0.151 l 0.0201,0.0197 z m 1.7429,-0.5083 c -0.0645,-0.1469 -0.0501,-0.1367 -0.21,-0.195 -0.3372,-0.1225 -0.313,-0.1305 -0.5919,0.0483 -0.0949,0.0615 -0.1457,0.1308 -0.2396,0.0331 -0.0297,-0.0308 -0.0588,-0.0916 -0.1203,-0.0814 -0.198,0.0319 0.1145,0.3175 0.1434,0.329 0.1079,0.0433 0.1886,-0.068 0.257,-0.1054 0.1706,0.1801 -0.0119,0.4127 -0.0141,0.5203 -0.002,0.0974 0.0174,-0.0304 0.007,0.0909 -0.0124,0.1499 -0.0824,0.0767 -0.0418,0.4441 0.007,0.0675 0.0149,0.1372 0.0219,0.2079 0.0291,0.3094 0.2172,0.1248 0.2172,0.1246 0.0513,-0.0919 -0.1656,-0.6381 0.0622,-0.8416 0.0733,0.0319 0.1427,0.1915 0.1928,0.2583 0.1278,0.0246 0.2665,-0.0386 0.3843,-0.0708 0.1666,-0.0455 0.2448,-0.0435 0.1778,-0.2174 -0.1644,-0.0314 -0.3028,0.0934 -0.468,0.0847 0.0115,-0.12 0.0235,-0.006 0.0137,-0.0969 -0.0162,-0.1467 -0.1604,-0.1663 -0.1128,-0.3907 l 0.0608,-0.1589 c 0.1397,0.0157 0.061,0.1203 0.1713,0.2358 0.1749,-0.001 0.1432,-0.0959 0.0892,-0.2189 z m -2.6302,0.925 c 0.0523,-0.0468 0.2306,-0.3514 0.2607,-0.4055 -0.1838,-0.128 -0.4007,-0.2557 -0.5885,-0.3673 -0.0456,0.0326 -0.2191,0.331 -0.2645,0.4069 l 0.5923,0.3659 z m 2.2925,-1.3232 c 0.0192,0.0353 0.003,0.0216 -0.0102,0.0715 0.2226,0.1379 0.1051,0.056 0.1868,0.0129 0.0597,0.0391 0.0734,0.0508 0.1339,0.0149 -0.0241,-0.1016 -0.0515,-0.043 -0.0799,-0.1048 -0.0309,-0.071 0.0528,-0.0369 -0.1146,-0.1454 -0.0468,0.0151 -0.007,0.006 -0.0343,0.0249 -0.0469,0.0318 -0.0247,0.0505 -0.0289,-0.0431 -0.0199,-0.4563 -0.6842,-0.1589 -0.3808,0.1536 0.1417,0.1452 0.2737,10e-4 0.328,0.0155 z m -2.0923,-0.6366 c -0.3459,0.0795 -0.2122,0.5758 0.1143,0.4919 0.2944,-0.0757 0.2107,-0.5661 -0.1143,-0.4919 z m 2.2728,1.6009 c 0.0695,-0.001 0.395,-0.0984 0.4551,-0.1327 -0.0237,-0.0765 -0.0969,-0.1589 -0.138,-0.2299 l -0.3158,0.1053 -0.001,0.2573 z" />
    <path
       id="path86"
       style="fill:#f5821f;fill-rule:evenodd"
       d="m 321.6753,492.9559 0,-10.5375 1.1696,0 4.515,8.271 0,-8.271 1.0933,0 0,10.5375 -1.1695,0 -4.5151,-8.2709 0,8.2709 -1.0933,0 z m 7.7474,0 3.3009,-10.5375 1.2521,0 3.503,10.5375 -1.2957,0 -0.9958,-3.1935 -3.6235,0 -0.9332,3.1935 -1.2078,0 z m 2.4755,-4.3268 2.9327,0 -0.8975,-2.9214 c -0.2704,-0.888 -0.4748,-1.6214 -0.6168,-2.2002 -0.1185,0.6868 -0.2763,1.3615 -0.4748,2.0285 l -0.9436,3.0931 z m 8.0441,4.3268 -3.325,-10.5375 1.2339,0 2.2354,7.6578 c 0.178,0.6132 0.3305,1.1872 0.4507,1.7243 0.1321,-0.5762 0.2863,-1.1503 0.4626,-1.7243 l 2.3193,-7.6578 1.162,0 -3.3551,10.5375 -1.1838,0 z m 3.7296,0 3.3009,-10.5375 1.2518,0 3.5033,10.5375 -1.296,0 -0.9955,-3.1935 -3.6235,0 -0.9332,3.1935 -1.2078,0 z m 2.4755,-4.3268 2.9327,0 -0.8975,-2.9214 c -0.2704,-0.888 -0.4748,-1.6214 -0.6168,-2.2002 -0.1185,0.6868 -0.2764,1.3615 -0.4748,2.0285 l -0.9436,3.0931 z m 9.1839,4.3268 0,-10.5375 3.8138,0 c 0.767,0 1.3498,0.0956 1.7484,0.2846 0.3988,0.1888 0.7171,0.5224 0.9555,1.0007 0.2384,0.4784 0.3566,1.0082 0.3566,1.5871 0,0.748 -0.1981,1.3785 -0.5927,1.891 -0.3949,0.5128 -1.0035,0.8365 -1.8289,0.9762 0.3025,0.1766 0.5309,0.3532 0.6871,0.525 0.3325,0.3727 0.6469,0.8413 0.9414,1.4031 l 1.4882,2.8698 -1.4221,0 -1.1379,-2.1928 c -0.3305,-0.6353 -0.6046,-1.1186 -0.8192,-1.4545 -0.2163,-0.3362 -0.4085,-0.5692 -0.5788,-0.7041 -0.1684,-0.1324 -0.3424,-0.2257 -0.5188,-0.2795 -0.1281,-0.0321 -0.3384,-0.0491 -0.6327,-0.0491 l -1.3181,0 0,4.68 -1.1418,0 z m 1.1418,-5.887 2.4438,0 c 0.5207,0 0.9252,-0.066 1.2177,-0.1987 0.2923,-0.1298 0.5148,-0.3407 0.6651,-0.6327 0.1519,-0.2894 0.2281,-0.6035 0.2281,-0.9442 0,-0.498 -0.1459,-0.9102 -0.4405,-1.2313 -0.2948,-0.3215 -0.7591,-0.4808 -1.394,-0.4808 l -2.7202,0 0,3.4877 z m 6.5696,5.887 3.3012,-10.5375 1.2518,0 3.5031,10.5375 -1.2957,0 -0.9956,-3.1935 -3.6235,0 -0.9334,3.1935 -1.2079,0 z m 2.4758,-4.3268 2.9324,0 -0.8974,-2.9214 c -0.2702,-0.888 -0.4745,-1.6214 -0.6168,-2.2002 -0.1182,0.6868 -0.2764,1.3615 -0.4748,2.0285 l -0.9434,3.0931 z m 6.6759,4.3268 0,-10.5375 1.1418,0 0,10.5375 -1.1418,0 z m 3.147,0 0,-10.5375 3.2488,0 c 0.5706,0 1.0074,0.0343 1.3099,0.1007 0.4226,0.0858 0.7772,0.25 1.0635,0.4903 0.2866,0.243 0.5168,0.5814 0.6911,1.0157 0.1741,0.434 0.2602,0.9125 0.2602,1.4349 0,0.8929 -0.2321,1.6509 -0.6987,2.2689 -0.4649,0.6205 -1.3082,0.9297 -2.526,0.9297 l -2.2073,0 0,4.2973 -1.1415,0 z m 1.1415,-5.5338 2.2235,0 c 0.737,0 1.2577,-0.1666 1.5684,-0.5025 0.3084,-0.3362 0.4623,-0.8071 0.4623,-1.4179 0,-0.4391 -0.0898,-0.8167 -0.2721,-1.1308 -0.1823,-0.314 -0.4226,-0.5224 -0.7191,-0.623 -0.1925,-0.0613 -0.5468,-0.0933 -1.0616,-0.0933 l -2.2014,0 0,3.7675 z m 12.5107,-5.0037 1.1418,0 0,6.0857 c 0,1.0596 -0.0981,1.9009 -0.2923,2.524 -0.1964,0.6205 -0.549,1.1282 -1.0576,1.5182 -0.511,0.3901 -1.1778,0.5862 -2.0072,0.5862 -0.8033,0 -1.4621,-0.1692 -1.9729,-0.5102 -0.5128,-0.341 -0.8773,-0.8314 -1.0956,-1.4766 -0.2182,-0.6451 -0.3285,-1.5256 -0.3285,-2.6416 l 0,-6.0857 1.1418,0 0,6.0832 c 0,0.9147 0.07,1.5919 0.2083,2.0236 0.1381,0.434 0.3745,0.7702 0.7129,1.0032 0.3365,0.2356 0.7492,0.3532 1.236,0.3532 0.8331,0 1.428,-0.233 1.7827,-0.6967 0.3543,-0.4661 0.5306,-1.3587 0.5306,-2.6833 l 0,-6.0832 z m 3.0668,10.5375 0,-10.5375 3.8135,0 c 0.767,0 1.3498,0.0956 1.7487,0.2846 0.3985,0.1888 0.7168,0.5224 0.9555,1.0007 0.2384,0.4784 0.3563,1.0082 0.3563,1.5871 0,0.748 -0.1981,1.3785 -0.5927,1.891 -0.3949,0.5128 -1.0035,0.8365 -1.8286,0.9762 0.3021,0.1766 0.5306,0.3532 0.6868,0.525 0.3325,0.3727 0.6472,0.8413 0.9414,1.4031 l 1.4882,2.8698 -1.4222,0 -1.1375,-2.1928 c -0.3308,-0.6353 -0.6049,-1.1186 -0.8192,-1.4545 -0.2166,-0.3362 -0.4088,-0.5692 -0.5791,-0.7041 -0.1681,-0.1324 -0.3422,-0.2257 -0.5188,-0.2795 -0.1281,-0.0321 -0.3381,-0.0491 -0.6327,-0.0491 l -1.3181,0 0,4.68 -1.1415,0 z m 1.1415,-5.887 2.4438,0 c 0.5207,0 0.9255,-0.066 1.2177,-0.1987 0.2923,-0.1298 0.5148,-0.3407 0.665,-0.6327 0.1523,-0.2894 0.2282,-0.6035 0.2282,-0.9442 0,-0.498 -0.146,-0.9102 -0.4405,-1.2313 -0.2945,-0.3215 -0.7591,-0.4808 -1.3941,-0.4808 l -2.7201,0 0,3.4877 z m 9.2458,5.887 3.3012,-10.5375 1.2518,0 3.503,10.5375 -1.2957,0 -0.9955,-3.1935 -3.6235,0 -0.9335,3.1935 -1.2078,0 z m 2.4758,-4.3268 2.9324,0 -0.8974,-2.9214 c -0.2705,-0.888 -0.4748,-1.6214 -0.6169,-2.2002 -0.1182,0.6868 -0.2763,1.3615 -0.4748,2.0285 l -0.9433,3.0931 z m 7.7796,4.3268 0,-9.3013 -2.8363,0 0,-1.2362 6.8142,0 0,1.2362 -2.8363,0 0,9.3013 -1.1416,0 z m 3.3189,0 3.3009,-10.5375 1.2521,0 3.503,10.5375 -1.2957,0 -0.9958,-3.1935 -3.6235,0 -0.9332,3.1935 -1.2078,0 z m 2.4754,-4.3268 2.9328,0 -0.8975,-2.9214 c -0.2704,-0.888 -0.4748,-1.6214 -0.6168,-2.2002 -0.1185,0.6868 -0.2764,1.3615 -0.4748,2.0285 l -0.9437,3.0931 z m 6.4358,4.3268 0,-10.5375 1.1418,0 0,9.3013 4.2304,0 0,1.2362 -5.3722,0 z m 9.6126,0 0,-10.5375 1.1696,0 4.515,8.271 0,-8.271 1.0933,0 0,10.5375 -1.1696,0 -4.515,-8.2709 0,8.2709 -1.0933,0 z m 7.7474,0 3.3012,-10.5375 1.2518,0 3.503,10.5375 -1.2957,0 -0.9955,-3.1935 -3.6235,0 -0.9335,3.1935 -1.2078,0 z m 2.4757,-4.3268 2.9325,0 -0.8975,-2.9214 c -0.2704,-0.888 -0.4748,-1.6214 -0.6168,-2.2002 -0.1182,0.6868 -0.2764,1.3615 -0.4748,2.0285 l -0.9434,3.0931 z m 10.5098,0.1914 0,-1.2362 3.6414,0 0,3.9047 c -0.5587,0.5445 -1.1356,0.9567 -1.7306,1.2314 -0.5947,0.2747 -1.2056,0.4121 -1.8306,0.4121 -0.8453,0 -1.6126,-0.2208 -2.3034,-0.6647 -0.6891,-0.4416 -1.2121,-1.0842 -1.5625,-1.9205 -0.3526,-0.839 -0.5287,-1.7759 -0.5287,-2.8085 0,-1.0253 0.1744,-1.982 0.5247,-2.8724 0.3504,-0.8881 0.8533,-1.5477 1.5101,-1.9771 0.6573,-0.4318 1.4142,-0.6475 2.2716,-0.6475 0.6208,0 1.1838,0.1228 1.6864,0.3705 0.5028,0.2478 0.8974,0.591 1.1817,1.0301 0.2866,0.4414 0.5029,1.0179 0.6512,1.7269 l -1.0276,0.3433 c -0.1301,-0.5346 -0.2906,-0.9567 -0.4808,-1.2657 -0.1922,-0.3064 -0.4648,-0.5519 -0.8212,-0.7359 -0.3546,-0.1839 -0.7492,-0.2772 -1.1837,-0.2772 -0.5187,0 -0.9675,0.0984 -1.3482,0.292 -0.3784,0.1939 -0.6828,0.449 -0.9173,0.7679 -0.2324,0.3163 -0.4124,0.6647 -0.5408,1.0423 -0.2183,0.6551 -0.3283,1.3614 -0.3283,2.1243 0,0.9419 0.1321,1.7291 0.3943,2.3643 0.2645,0.633 0.6492,1.1038 1.1518,1.4105 0.5048,0.3068 1.0397,0.4612 1.6066,0.4612 0.4927,0 0.9732,-0.1179 1.442,-0.3509 0.4689,-0.2353 0.8235,-0.483 1.0658,-0.7503 l 0,-1.9746 -2.5239,0 z m 4.3784,4.1354 3.3012,-10.5375 1.2518,0 3.503,10.5375 -1.2957,0 -0.9955,-3.1935 -3.6235,0 -0.9335,3.1935 -1.2078,0 z m 2.4758,-4.3268 2.9324,0 -0.8975,-2.9214 c -0.2704,-0.888 -0.4748,-1.6214 -0.6168,-2.2002 -0.1182,0.6868 -0.2764,1.3615 -0.4748,2.0285 l -0.9433,3.0931 z m 6.5077,4.3268 0,-10.5375 3.8135,0 c 0.7673,0 1.3501,0.0956 1.7487,0.2846 0.3985,0.1888 0.7171,0.5224 0.9555,1.0007 0.2384,0.4784 0.3563,1.0082 0.3563,1.5871 0,0.748 -0.1981,1.3785 -0.5927,1.891 -0.3946,0.5128 -1.0034,0.8365 -1.8286,0.9762 0.3024,0.1766 0.5306,0.3532 0.6871,0.525 0.3322,0.3727 0.6469,0.8413 0.9414,1.4031 l 1.4882,2.8698 -1.4224,0 -1.1376,-2.1928 c -0.3305,-0.6353 -0.6049,-1.1186 -0.8192,-1.4545 -0.2163,-0.3362 -0.4085,-0.5692 -0.5788,-0.7041 -0.1684,-0.1324 -0.3425,-0.2257 -0.5188,-0.2795 -0.1284,-0.0321 -0.3384,-0.0491 -0.6329,-0.0491 l -1.3182,0 0,4.68 -1.1415,0 z m 1.1415,-5.887 2.4438,0 c 0.521,0 0.9255,-0.066 1.2178,-0.1987 0.2925,-0.1298 0.5147,-0.3407 0.665,-0.6327 0.1522,-0.2894 0.2284,-0.6035 0.2284,-0.9442 0,-0.498 -0.1462,-0.9102 -0.4405,-1.2313 -0.2948,-0.3215 -0.7594,-0.4808 -1.3943,-0.4808 l -2.7202,0 0,3.4877 z" />
  </g>
</svg>
